<?xml version="1.0" encoding="UTF-8"?>
<!DOCTYPE svg PUBLIC "-//W3C//DTD SVG 1.1//EN" "http://www.w3.org/Graphics/SVG/1.1/DTD/svg11.dtd">
<!-- Creator: CorelDRAW X8 -->
<svg xmlns="http://www.w3.org/2000/svg" xml:space="preserve" width="210mm" height="297mm" version="1.1" style="shape-rendering:geometricPrecision; text-rendering:geometricPrecision; image-rendering:optimizeQuality; fill-rule:evenodd; clip-rule:evenodd"
viewBox="0 0 21000 29700"
 xmlns:xlink="http://www.w3.org/1999/xlink">
 <defs>
  <style type="text/css">
   <![CDATA[
    .str0 {stroke:#2B2A29;stroke-width:20}
    .str1 {stroke:#2B2A29;stroke-width:7.62}
    .fil0 {fill:none}
    .fil11 {fill:none;fill-rule:nonzero}
    .fil10 {fill:#FEFEFE}
    .fil9 {fill:#2B2A29}
    .fil2 {fill:#020305}
    .fil6 {fill:#020403}
    .fil1 {fill:#040404}
    .fil4 {fill:#040507}
    .fil7 {fill:#050608}
    .fil5 {fill:#F2F3F5}
    .fil3 {fill:#F7F7F7}
    .fil8 {fill:#2B2A29;fill-rule:nonzero}
   ]]>
  </style>
    <clipPath id="id0">
     <path d="M7873 12220l12 -6c0,9 0,17 0,25 0,36 3,72 11,110 12,57 31,111 57,161 26,50 58,95 97,135 38,41 82,77 131,108 46,26 95,47 147,62 53,16 105,24 156,25 31,-4 77,-7 138,-9 62,-2 110,-5 145,-8 35,-3 72,-9 111,-20 38,-10 74,-27 107,-50 62,-52 100,-121 113,-208 0,-46 -10,-93 -29,-142 -2,-12 -5,-32 -10,-61 -6,-29 -8,-54 -8,-75 0,-7 0,-20 2,-38 -32,17 -63,26 -93,26 -6,0 -18,-1 -36,-3 -45,-19 -96,-29 -152,-29 -67,0 -133,13 -198,40 -22,11 -41,27 -58,47 -17,21 -25,41 -25,62 0,27 16,51 46,70 16,7 35,10 56,10 40,0 71,-12 94,-34 11,-15 17,-32 17,-50 0,-9 -2,-17 -5,-23 -16,-15 -35,-23 -57,-23 -10,0 -16,1 -20,3 -16,5 -29,18 -37,39 0,10 7,18 21,23 7,-3 14,-5 23,-5 1,0 1,3 1,8 -5,5 -13,8 -25,8 -11,0 -21,-3 -28,-8 -8,-8 -12,-15 -12,-22 0,-5 2,-9 4,-13 2,-5 6,-10 10,-17 5,-6 7,-10 8,-12 19,-13 40,-20 62,-20 15,0 27,3 38,10 56,32 92,95 108,187 -2,38 -6,69 -13,93 -7,25 -21,45 -42,61 -21,17 -50,26 -84,26 -7,0 -15,-1 -26,-3 -52,-20 -100,-47 -142,-81 -42,-33 -78,-72 -108,-118 -30,-46 -52,-96 -67,-150 -9,-35 -13,-72 -13,-111 0,-70 15,-138 44,-202 2,-5 4,-10 6,-14l18 -9c-9,18 -17,36 -25,55 -21,55 -32,112 -32,170 0,31 3,60 10,89 16,71 45,135 88,192 43,57 96,103 159,138 42,19 75,28 100,28 20,0 37,-4 50,-11 35,-23 55,-61 61,-114 0,-77 -17,-133 -51,-168 -4,3 -9,10 -13,21 -4,11 -8,18 -12,23 -31,32 -74,48 -129,48 -30,-4 -54,-15 -71,-33 -17,-19 -25,-40 -25,-64 0,-22 7,-44 22,-66 58,-61 147,-92 268,-92 39,0 74,3 106,9 29,8 55,12 76,12 22,0 43,-3 64,-9 20,-6 43,-15 70,-27 -5,19 -8,42 -8,70 0,32 3,64 8,98 6,33 10,55 14,66 7,26 10,54 10,86 0,82 -23,148 -70,200 -31,37 -69,65 -113,83 -45,18 -90,30 -138,35 -48,6 -105,9 -173,9 -67,1 -116,3 -148,7 -71,-11 -129,-22 -174,-33 -45,-11 -88,-28 -129,-51 -40,-22 -79,-53 -114,-92 -36,-40 -70,-91 -102,-153 -49,-87 -74,-184 -74,-289l0 -12zm70 -32l12 -5c-2,15 -3,31 -3,47 0,29 3,57 8,82 9,24 22,44 40,59 17,16 40,30 68,42 3,0 5,-4 7,-10 2,-6 4,-12 5,-16 -48,-29 -78,-63 -90,-102 -5,-14 -8,-29 -8,-45 0,-11 1,-22 3,-31 2,-9 7,-25 14,-46l54 -25c-4,8 -8,15 -11,22 -10,21 -14,43 -14,67 0,13 1,24 2,30 8,3 12,4 14,4 2,0 5,-2 9,-6 3,-4 9,-10 18,-17 8,-7 19,-15 33,-23 0,-6 0,-10 -2,-11 -1,-1 -5,-4 -12,-8l-23 6c-3,-3 -4,-8 -4,-13 0,-11 6,-26 17,-44 11,-11 21,-22 30,-32l80 -37c-11,23 -26,42 -45,59 0,9 7,16 23,19 33,-23 57,-56 71,-100l19 -9c-5,34 -10,78 -14,131 -1,9 -1,22 -1,39 0,59 9,116 28,171 18,55 44,105 78,152 34,46 74,87 120,123 55,38 95,64 119,77 25,12 46,19 65,19 12,0 22,-2 33,-5 10,-3 31,-11 64,-23 33,-27 58,-59 76,-97 18,-37 27,-77 27,-118 0,-7 -1,-18 -2,-34 -5,-49 -25,-92 -60,-132 -35,-39 -74,-72 -119,-98 2,-1 5,-1 8,-1 3,0 5,0 8,-1 2,0 6,-1 11,-2 27,0 54,2 80,6 26,4 50,9 73,16 23,7 48,15 73,23 25,10 41,15 50,15 11,0 22,-4 34,-12 -9,19 -13,39 -13,59 0,17 2,28 6,34 23,45 35,94 35,148 0,29 -4,55 -11,77 -8,28 -22,51 -42,69 -19,18 -40,33 -63,44 -23,12 -48,23 -75,33 -49,13 -99,22 -148,28 -49,6 -97,9 -143,9 -38,0 -67,-1 -86,-3 -50,-6 -100,-17 -151,-34 -49,-16 -92,-37 -127,-63 -128,-87 -207,-200 -236,-341 -9,-38 -14,-78 -14,-122 0,-15 1,-29 2,-44zm746 -338l22 -10c28,15 55,32 80,52 51,39 108,91 173,157 1,-64 8,-138 19,-222 6,-41 12,-81 20,-119l21 -10c-23,121 -38,245 -46,374 -4,4 -6,5 -6,5 -21,-20 -48,-46 -83,-79 -34,-32 -66,-60 -94,-82 -28,-22 -59,-41 -91,-59 -5,-2 -10,-5 -15,-7zm78 -36l59 -26 29 0c5,0 7,-3 7,-10 0,-2 0,-4 -1,-6l12 -6c6,24 10,51 10,81 -3,5 -6,8 -9,8 -8,-4 -13,-8 -17,-14 -4,-7 -9,-19 -17,-38l-18 -1c0,11 2,21 8,30 6,10 14,20 24,31 10,10 20,21 30,31 13,-4 19,-22 19,-51 0,-11 -1,-24 -3,-41 -3,-17 -5,-32 -7,-44l-1 0 43 -19c-5,27 -9,59 -13,97 -4,43 -8,75 -13,95 -24,-15 -53,-37 -85,-67 -21,-18 -40,-35 -57,-50zm-267 963c-28,0 -58,-2 -87,-7 -30,-6 -57,-13 -83,-22 -26,-9 -53,-20 -82,-34 -4,-3 -10,-9 -19,-17 -8,-7 -15,-15 -20,-22 -5,-7 -7,-14 -7,-22l27 0c18,21 38,37 59,49 22,12 44,20 68,26 25,5 52,9 82,11 5,-3 9,-4 14,-4 3,0 7,0 12,1 5,1 8,2 11,2 6,0 10,-2 14,-4l0 -9c-14,-5 -27,-13 -41,-24 -14,-11 -29,-22 -44,-32 -14,-11 -29,-20 -45,-26 -15,-7 -32,-10 -51,-10 -9,-8 -13,-17 -13,-27 0,-1 1,-4 3,-7 41,0 74,8 99,24 17,13 42,32 74,56 32,25 54,42 67,52 12,10 30,23 53,40l-91 6zm480 -124c-4,7 -19,19 -43,34 -25,16 -51,30 -80,43 -29,12 -54,19 -75,19 -5,0 -11,-1 -18,-3 18,-5 32,-14 43,-27 11,-13 22,-32 33,-57 11,-25 21,-44 28,-57 7,-13 17,-24 29,-33 4,3 8,6 11,8 3,2 5,5 5,9 -1,6 -3,10 -6,12 -3,3 -8,7 -16,14 0,1 -3,6 -8,17 -5,10 -8,19 -10,26 -3,7 -3,12 -3,16 0,4 1,9 4,15 2,3 5,5 9,5 7,-3 18,-9 34,-20 22,-19 33,-40 33,-62 -5,-9 -17,-24 -34,-44 -18,-20 -30,-35 -36,-47 -1,-10 -2,-19 -2,-27 1,-33 9,-58 21,-72 13,0 22,2 27,8 0,8 -3,19 -8,33 -5,13 -9,24 -10,31 5,13 14,27 29,41 15,15 29,28 43,41 5,10 8,22 8,34 0,11 -3,25 -8,43zm-634 54c0,0 -2,-1 -8,-3 -5,-2 -9,-3 -14,-3 -35,-18 -62,-51 -80,-98 -6,-6 -11,-15 -16,-27 -4,-13 -10,-21 -16,-24 -3,1 -7,4 -9,10 -3,5 -5,10 -6,14 -1,-1 -4,-1 -7,-1 -3,0 -6,-1 -8,-1 -2,-1 -4,-2 -4,-3 -2,-8 -3,-15 -3,-21 0,-22 7,-40 22,-52 21,10 39,29 53,55 13,26 27,51 40,74 14,24 31,40 52,48 6,-1 9,-4 9,-9l0 -9 23 9c1,3 6,9 13,18 7,9 10,16 10,23l-51 0zm-130 -73c-50,-5 -95,-24 -136,-58 -17,-16 -33,-40 -46,-72 -13,-31 -19,-58 -19,-81 19,0 31,2 34,7 3,12 5,22 7,31 1,9 3,17 5,24 2,7 6,15 11,23 16,27 37,48 65,64 28,16 58,26 89,31 0,1 2,4 5,10 2,5 3,10 3,12 0,4 -2,7 -5,9l-13 0zm117 -58l-16 0c-27,-33 -53,-60 -78,-81 -25,-21 -57,-41 -96,-59 2,-3 3,-7 5,-12 2,-6 3,-9 4,-10 14,4 26,9 38,15 12,6 25,14 39,25 14,10 27,19 37,26 21,20 38,37 50,51 11,14 17,29 17,45zm652 -30c0,0 0,1 -1,1 0,0 0,0 -1,1 -10,-3 -15,-9 -15,-17 8,-9 12,-29 12,-60 -9,-22 -22,-39 -41,-51 -18,-11 -47,-25 -84,-40 -11,-7 -24,-17 -38,-30 -15,-14 -31,-30 -49,-49 -17,-19 -29,-32 -35,-38 7,-1 17,-1 30,-1 29,0 59,5 87,15 29,10 55,24 77,42 18,22 27,40 27,54l-32 -13c-3,-2 -8,-7 -16,-15 -8,-8 -13,-13 -17,-16 -7,-5 -13,-9 -20,-14 -7,-4 -13,-8 -20,-11 -7,-3 -13,-5 -17,-5 -5,0 -9,2 -13,4 0,3 1,7 4,11 2,3 4,6 4,8 26,22 65,45 117,66 17,8 31,17 42,28 11,12 20,27 26,45 0,23 -2,42 -5,55 -3,14 -11,24 -22,30zm-837 -25c-8,2 -15,4 -18,4 -4,0 -8,-3 -13,-8 -5,-6 -9,-10 -13,-14 -13,-13 -20,-30 -20,-51 0,-13 4,-33 12,-60 9,-27 13,-47 13,-61 0,-10 -1,-17 -2,-22 -2,-2 -5,-3 -10,-3l-35 40c-1,-1 -3,-2 -6,-4 -4,-2 -6,-4 -7,-6 9,-24 19,-44 29,-60 11,-16 24,-29 39,-37 3,2 6,5 8,11 13,22 20,47 20,75 0,32 -8,66 -22,101 -6,17 -9,30 -9,38 0,11 4,19 11,24 4,4 8,6 11,6 7,0 12,-9 16,-28 6,2 11,3 13,4 2,0 4,1 5,2 2,1 3,3 3,4 1,2 1,5 1,9 -9,19 -18,31 -26,36zm44 -306c8,10 16,26 23,48 9,22 12,44 12,66 0,34 -9,64 -29,89l-24 -12c0,-3 1,-8 4,-13 2,-6 3,-10 4,-13 8,-19 12,-36 12,-54 0,-29 -8,-55 -24,-78 -16,-24 -40,-53 -73,-88 3,-5 8,-10 13,-15 37,20 64,44 82,70z"/>
    </clipPath>
    <clipPath id="id1">
     <path d="M9008 11792l-21 9c11,-74 25,-145 42,-211l-166 11c-87,5 -167,10 -241,14 -75,5 -147,13 -218,26 -71,12 -138,33 -202,64 -63,30 -118,72 -162,125 -32,36 -60,76 -83,120 -23,44 -41,91 -54,141 -12,49 -18,99 -18,148 0,15 0,31 2,46l-11 5c-2,-19 -3,-39 -3,-58 0,-94 20,-181 59,-262 39,-85 95,-156 168,-214 72,-58 159,-99 259,-122 34,-9 79,-15 133,-18l560 -48c-18,73 -32,148 -44,224zm-85 37l-20 9c0,-10 -1,-22 -3,-36 -3,-17 -5,-32 -7,-44 -3,-11 -4,-16 -4,-14 -7,-16 -14,-25 -22,-30 -2,0 -4,2 -5,4 -1,3 -2,5 -4,8 17,33 25,73 25,121l0 0 -13 6c-6,-4 -10,-8 -13,-12 -4,-7 -9,-19 -17,-38l-18 -1c0,11 2,21 8,30 5,9 12,19 22,29l-22 9 -6 -6c-33,-29 -62,-54 -87,-75 -25,-22 -50,-38 -76,-51 -12,-7 -26,-12 -42,-16 -15,-4 -29,-6 -42,-6 -31,0 -51,8 -61,24 -42,53 -80,91 -115,115 -35,24 -64,44 -85,59 -21,15 -37,40 -47,76 -8,29 -15,74 -21,136l-99 44c-12,-9 -24,-17 -39,-25 -5,5 -10,10 -13,15 8,8 15,16 21,23l-31 14 -20 5c-3,-3 -4,-8 -4,-13 0,-11 6,-26 17,-44 31,-32 53,-59 67,-80 14,-21 21,-45 21,-72 -4,-3 -10,-5 -18,-5 -16,0 -37,6 -64,17l-1 28c2,2 4,3 6,3 3,0 7,-2 13,-6 5,-4 10,-6 13,-6 4,0 7,3 8,9 -6,11 -20,30 -39,56 -20,27 -35,50 -44,71 -9,20 -14,41 -14,63l-46 20 0 -3c0,-11 1,-22 3,-31 2,-9 7,-25 14,-47 8,-21 13,-38 16,-49 3,-11 5,-22 5,-34 0,-9 -2,-18 -4,-27 -42,39 -64,99 -64,178 0,9 1,18 1,26l-11 5c-1,-10 -1,-19 -1,-29 0,-51 7,-102 20,-151 20,-53 37,-94 48,-121 12,-28 28,-55 48,-81 58,-62 127,-110 205,-146 78,-36 162,-56 252,-60 49,-2 87,-4 112,-5 26,-2 61,-4 104,-7 44,-3 82,-6 114,-8 32,-3 72,-6 119,-10 -13,26 -21,54 -26,84 -5,28 -10,62 -14,102zm-136 60l-18 8c-21,-14 -42,-28 -65,-40 -32,-17 -67,-31 -106,-41 -19,0 -37,2 -52,7 -16,5 -30,12 -43,21 -13,9 -27,20 -41,34 -14,13 -26,23 -34,31 -36,39 -64,86 -85,141 -5,14 -9,27 -13,40l-14 6c7,-26 16,-53 28,-78 28,-65 67,-118 117,-160 18,-18 38,-32 60,-43 22,-12 43,-18 65,-18 10,0 23,2 36,6 61,20 116,48 165,86zm-619 265c-16,-3 -23,-10 -23,-19 24,-20 41,-45 51,-75 10,-29 15,-61 15,-96 0,-18 -2,-39 -5,-63 5,-2 11,-3 15,-5 5,-1 8,-2 10,-2 4,0 7,1 10,4 7,22 11,46 11,70 0,16 -2,33 -4,51 -12,62 -39,107 -80,135zm-95 -77c0,12 -2,17 -8,17 -2,0 -8,-4 -17,-13 -9,-20 -13,-41 -13,-65 0,-23 4,-48 11,-75 13,-29 32,-57 60,-85 27,-27 52,-47 76,-57 -4,12 -10,23 -16,30 -7,8 -19,20 -36,36 -17,17 -28,31 -34,42 -22,36 -33,75 -33,116 0,19 3,37 10,54zm67 -126c-17,-2 -27,-4 -31,-4 -4,-1 -6,-3 -6,-5 0,-1 0,-3 1,-6 1,-2 2,-7 3,-13 8,-16 20,-29 36,-41 15,-11 33,-20 54,-28 20,-7 39,-15 58,-21 18,-7 33,-14 46,-22 3,-3 4,-10 4,-19 -5,-3 -7,-4 -7,-4 -4,2 -8,3 -15,3 16,-11 31,-17 47,-17 8,0 15,1 21,4 3,3 4,5 4,5 -9,18 -22,34 -39,46 -17,12 -39,24 -66,35 -27,12 -47,21 -61,27 -13,6 -25,15 -37,27 2,9 14,13 36,13 0,8 -1,13 -5,16l-43 4zm126 -44l-3 0c0,-1 -1,-4 -3,-9 -2,-5 -3,-9 -3,-12 0,-3 1,-5 4,-6 21,-9 36,-17 45,-22 9,-5 18,-12 27,-21 6,-7 17,-18 35,-33 17,-16 31,-29 40,-40 9,-10 15,-22 17,-33 -4,0 -7,0 -9,0 -2,0 -4,0 -6,1 -3,0 -5,1 -8,1 -3,1 -6,1 -9,1 -39,10 -67,17 -83,22 -16,5 -33,13 -51,25 -17,12 -30,27 -38,46l-23 4c0,-21 8,-38 23,-52 32,-29 73,-48 120,-58 48,-10 102,-15 162,-15 -47,55 -88,99 -123,131 -35,33 -73,56 -114,70zm556 -119c-8,-2 -23,-6 -44,-11 -22,-5 -40,-11 -55,-18 -25,-15 -44,-27 -57,-36 -12,-9 -21,-20 -28,-33 45,-7 81,-10 107,-10 26,0 48,2 65,8 0,12 -1,18 -3,18 -24,-2 -58,-3 -102,-3 -2,1 -3,4 -3,8 2,3 9,10 21,21 32,20 77,31 137,33 1,6 2,10 2,13 0,7 -2,10 -7,10l-33 0zm-10 -40l-1 0c0,-8 1,-15 3,-20 1,-6 3,-12 6,-17 3,-5 6,-11 11,-17 4,-7 8,-11 9,-13 20,-12 42,-19 67,-19 9,0 18,1 25,4 3,3 4,5 4,7l-32 63 -7 -16 6 -24c-3,-4 -7,-7 -14,-8 -16,0 -27,5 -33,15 -10,8 -20,24 -29,47 -2,-1 -5,-1 -7,-1 -3,0 -5,-1 -8,-1z"/>
    </clipPath>
    <clipPath id="id2">
     <path d="M10850 13688l11 -5c0,8 0,16 0,24 0,36 4,73 12,110 12,58 31,111 57,161 26,50 58,96 96,136 38,40 82,76 131,107 46,26 95,47 148,63 52,15 104,23 155,24 32,-4 78,-7 139,-9 61,-2 109,-4 144,-7 35,-3 72,-10 111,-20 38,-11 74,-28 107,-51 62,-51 100,-121 113,-207 0,-46 -9,-94 -29,-142 -1,-12 -4,-33 -10,-62 -5,-29 -8,-54 -8,-75 0,-7 1,-19 2,-38 -32,17 -62,26 -92,26 -7,0 -19,-1 -37,-2 -45,-20 -95,-30 -152,-30 -67,0 -132,14 -198,41 -22,10 -41,26 -57,47 -17,20 -26,41 -26,61 0,28 16,51 47,70 16,7 34,10 56,10 39,0 70,-11 93,-34 12,-15 17,-32 17,-50 0,-9 -1,-17 -5,-23 -16,-15 -35,-23 -57,-23 -9,0 -16,1 -19,3 -17,5 -29,18 -38,39 0,10 7,18 22,23 6,-3 14,-4 22,-4 1,0 1,2 1,7 -4,6 -13,9 -25,9 -11,0 -21,-3 -28,-9 -8,-7 -11,-15 -11,-22 0,-4 1,-9 3,-13 3,-5 6,-10 11,-16 4,-7 7,-11 7,-13 20,-13 41,-20 62,-20 15,0 27,3 38,10 56,33 92,95 108,187 -1,38 -6,69 -13,94 -6,24 -20,44 -42,61 -21,17 -49,25 -84,25 -7,0 -15,-1 -26,-2 -52,-21 -99,-48 -141,-81 -42,-34 -78,-73 -109,-119 -30,-46 -52,-95 -67,-149 -8,-35 -12,-72 -12,-111 0,-71 14,-138 43,-203 2,-5 4,-9 6,-14l18 -8c-9,17 -17,35 -25,55 -21,55 -31,111 -31,170 0,30 3,60 9,89 16,70 45,134 88,191 44,57 96,103 159,139 42,18 76,28 101,28 20,0 36,-4 50,-12 34,-22 54,-61 61,-114 0,-76 -17,-132 -51,-168 -5,4 -9,11 -13,21 -5,11 -9,18 -13,23 -31,32 -73,48 -129,48 -30,-4 -54,-15 -71,-33 -17,-18 -25,-39 -25,-64 0,-22 8,-44 23,-65 57,-62 146,-93 267,-93 40,0 75,4 106,10 30,7 55,11 77,11 22,0 43,-3 63,-9 20,-6 44,-15 70,-27 -5,20 -8,43 -8,70 0,32 3,65 8,98 6,34 10,56 14,66 7,26 10,54 10,86 0,82 -23,149 -70,200 -31,37 -69,65 -113,83 -44,19 -90,30 -138,36 -48,5 -105,8 -172,9 -67,1 -117,3 -149,6 -71,-11 -129,-21 -174,-33 -45,-11 -88,-28 -128,-50 -41,-22 -79,-53 -115,-93 -36,-40 -69,-91 -101,-153 -50,-87 -74,-183 -74,-289l0 -12zm69 -32l12 -5c-1,15 -2,31 -2,48 0,29 2,56 7,81 9,24 23,44 40,60 18,15 41,29 68,41 3,0 5,-3 7,-10 2,-6 4,-11 5,-16 -48,-29 -77,-63 -89,-102 -6,-14 -9,-29 -9,-44 0,-12 1,-22 3,-32 2,-9 7,-24 14,-46l55 -25c-5,8 -8,16 -12,23 -9,21 -14,43 -14,66 0,14 1,24 2,30 8,3 12,4 14,4 2,0 5,-2 9,-6 3,-4 10,-10 18,-17 8,-7 19,-15 33,-23 0,-6 0,-9 -2,-11 -1,-1 -5,-4 -12,-8l-23 7c-2,-4 -4,-8 -4,-13 0,-12 6,-26 17,-44 11,-12 21,-23 30,-33l80 -36c-10,22 -25,42 -45,58 0,9 8,16 23,19 33,-22 57,-56 71,-100l19 -8c-5,34 -10,77 -14,130 0,9 -1,22 -1,39 0,59 10,116 28,171 18,55 45,105 79,152 34,46 74,87 120,123 55,38 94,64 119,77 24,13 46,19 64,19 12,0 23,-1 33,-5 10,-3 32,-11 64,-23 33,-27 59,-59 77,-96 18,-38 27,-77 27,-119 0,-7 -1,-18 -3,-34 -5,-48 -25,-92 -60,-131 -34,-40 -74,-72 -118,-99 2,0 4,-1 7,-1 3,0 6,0 8,0 3,-1 6,-2 11,-3 28,0 54,2 80,6 26,4 51,9 74,16 23,7 47,15 72,24 25,9 42,14 51,14 10,0 22,-4 33,-12 -8,19 -13,39 -13,59 0,17 2,28 6,34 24,45 35,94 35,148 0,29 -3,55 -10,78 -9,27 -23,50 -42,68 -20,18 -41,33 -63,45 -23,11 -48,22 -76,32 -49,13 -98,22 -148,28 -49,6 -96,9 -142,9 -39,0 -68,-1 -86,-2 -51,-6 -101,-18 -151,-34 -50,-17 -93,-38 -128,-63 -128,-87 -207,-201 -236,-341 -9,-38 -13,-79 -13,-123 0,-15 0,-29 1,-44zm747 -338l21 -10c28,15 55,32 80,52 51,39 109,92 173,158 2,-65 8,-139 19,-223 6,-41 12,-80 20,-119l21 -10c-23,121 -38,246 -45,375 -5,3 -7,5 -7,5 -20,-20 -48,-47 -82,-79 -35,-33 -67,-61 -95,-82 -28,-23 -58,-42 -90,-59 -5,-3 -10,-5 -15,-8zm77 -35l59 -27 29 0c5,0 7,-3 7,-10 0,-1 0,-3 0,-6l12 -5c6,24 9,51 9,80 -3,5 -5,8 -9,8 -7,-3 -13,-8 -17,-14 -3,-6 -9,-19 -16,-37l-19 -2c0,11 3,21 8,30 6,10 14,20 24,31 11,11 21,21 30,31 13,-4 20,-21 20,-51 0,-10 -2,-24 -4,-41 -2,-17 -5,-31 -7,-43l0 -1 42 -19c-5,27 -9,60 -13,97 -4,44 -8,75 -12,95 -25,-15 -53,-37 -86,-66 -21,-19 -39,-35 -57,-50zm-266 963c-29,0 -58,-3 -88,-8 -29,-5 -57,-12 -83,-21 -26,-9 -53,-20 -82,-34 -4,-4 -10,-10 -18,-17 -9,-8 -15,-15 -20,-22 -5,-7 -8,-15 -8,-22l27 0c19,21 39,37 60,48 21,12 44,21 68,26 24,5 51,9 81,11 5,-2 10,-4 14,-4 3,0 7,1 12,2 5,0 9,1 11,1 6,0 10,-1 14,-4l0 -9c-13,-5 -27,-13 -41,-24 -14,-11 -29,-22 -43,-32 -15,-11 -30,-20 -45,-26 -16,-6 -33,-10 -52,-10 -8,-8 -13,-17 -13,-26 0,-2 1,-5 3,-8 41,0 74,8 100,24 17,13 41,32 73,57 32,24 54,42 67,52 13,9 30,23 53,39l-90 7zm479 -124c-4,7 -18,18 -43,34 -24,15 -51,29 -80,42 -29,13 -54,19 -75,19 -5,0 -11,-1 -17,-2 17,-6 32,-14 42,-28 11,-13 22,-31 33,-57 12,-24 21,-43 28,-56 7,-13 17,-25 29,-34 4,4 8,6 11,8 3,2 5,6 6,10 -2,5 -4,9 -7,12 -3,2 -8,7 -15,13 -1,1 -4,7 -8,17 -5,11 -9,19 -11,26 -2,7 -3,12 -3,16 0,4 1,10 4,15 2,4 5,5 9,5 7,-2 19,-9 34,-20 23,-19 34,-40 34,-61 -6,-10 -18,-24 -35,-44 -18,-20 -29,-36 -36,-48 -1,-10 -2,-19 -2,-27 2,-33 9,-57 22,-72 13,0 22,3 26,8 0,8 -2,19 -8,33 -5,13 -8,24 -10,31 5,13 15,27 29,42 15,14 29,28 43,40 6,10 9,22 9,34 0,11 -3,26 -9,44zm-633 53c0,0 -3,-1 -8,-3 -5,-2 -10,-3 -14,-3 -36,-18 -62,-51 -81,-98 -5,-6 -11,-15 -15,-27 -5,-12 -10,-21 -16,-24 -4,1 -7,4 -10,10 -3,6 -5,10 -6,14 -1,0 -3,-1 -6,-1 -3,0 -6,0 -8,-1 -3,-1 -4,-2 -5,-3 -2,-8 -3,-15 -3,-20 0,-23 8,-41 22,-53 22,11 39,29 53,55 14,26 27,51 41,75 13,23 30,39 52,48 6,-2 8,-5 8,-10l0 -8 24 8c1,3 5,9 12,18 7,9 11,17 11,23l-51 0zm-131 -73c-50,-4 -95,-24 -136,-58 -17,-16 -32,-40 -46,-72 -13,-31 -19,-58 -19,-81 20,0 32,2 35,7 2,12 4,22 6,31 2,9 3,17 6,24 2,7 5,15 10,23 16,27 38,48 65,64 28,16 58,26 89,31 1,1 2,4 5,10 2,6 3,10 3,13 0,3 -1,6 -5,8l-13 0zm117 -58l-16 0c-27,-33 -53,-60 -78,-81 -24,-21 -56,-41 -95,-59 1,-2 3,-7 4,-12 2,-6 4,-9 4,-10 14,4 27,10 38,15 12,6 25,15 39,25 15,11 27,19 37,26 22,20 38,37 50,51 12,14 17,29 17,45zm652 -29c0,0 0,0 0,0 -1,0 -1,1 -1,1 -11,-3 -16,-9 -16,-17 8,-9 12,-29 12,-59 -8,-23 -22,-39 -40,-51 -19,-12 -47,-26 -85,-41 -11,-7 -23,-17 -38,-30 -15,-14 -31,-30 -48,-49 -18,-19 -30,-31 -35,-37 7,-1 16,-1 29,-1 30,0 59,4 88,14 28,10 54,24 77,43 18,21 26,39 26,53l-32 -12c-3,-2 -8,-7 -16,-15 -7,-8 -13,-14 -17,-17 -7,-4 -13,-9 -20,-13 -6,-5 -13,-8 -20,-12 -6,-3 -12,-4 -17,-4 -5,0 -9,1 -13,4 0,3 2,6 4,10 3,4 4,7 4,8 26,23 65,45 117,67 17,7 32,16 43,28 11,11 19,26 25,45 0,23 -2,41 -5,55 -3,13 -10,23 -22,30zm-836 -26c-9,3 -15,4 -19,4 -4,0 -8,-3 -13,-8 -4,-6 -9,-10 -13,-14 -13,-13 -20,-30 -20,-51 0,-13 4,-33 13,-60 8,-27 12,-47 12,-60 0,-11 0,-18 -2,-22 -2,-3 -5,-4 -9,-4l-36 40c-1,0 -3,-2 -6,-4 -3,-2 -5,-3 -6,-6 8,-24 18,-44 29,-60 10,-16 23,-28 38,-37 3,2 6,6 9,11 12,22 19,47 19,75 0,33 -7,66 -22,102 -6,16 -9,29 -9,37 0,11 4,19 12,24 3,5 7,6 10,6 7,0 12,-9 16,-28 7,2 11,3 13,4 2,1 4,1 6,2 1,1 2,3 3,4 0,2 0,5 0,10 -9,18 -17,30 -25,35zm43 -306c8,10 16,26 24,48 8,22 12,44 12,66 0,34 -10,64 -30,89l-24 -11c0,-4 1,-9 4,-14 2,-5 4,-10 4,-13 9,-18 13,-36 13,-54 0,-28 -8,-54 -24,-78 -17,-23 -41,-53 -73,-88 2,-5 7,-10 13,-14 37,20 64,43 81,69z"/>
    </clipPath>
    <clipPath id="id3">
     <path d="M11984 13260l-21 10c11,-75 25,-145 42,-212l-165 11c-87,5 -168,10 -242,15 -74,4 -147,12 -218,25 -71,12 -138,34 -202,64 -63,30 -117,72 -162,126 -32,35 -60,75 -83,119 -23,44 -40,91 -53,141 -13,50 -19,99 -19,148 0,16 1,31 2,46l-11 5c-2,-19 -2,-38 -2,-58 0,-93 19,-181 58,-261 40,-85 96,-157 168,-215 73,-58 159,-98 259,-122 35,-9 79,-15 134,-18l559 -48c-17,73 -32,148 -44,224zm-85 38l-20 8c0,-9 -1,-21 -3,-36 -2,-17 -5,-31 -7,-43 -3,-12 -4,-17 -4,-15 -7,-15 -14,-25 -22,-29 -2,0 -3,1 -4,4 -1,2 -3,4 -4,7 16,33 24,74 24,121l0 0 -13 6c-5,-3 -9,-7 -13,-12 -3,-6 -9,-19 -16,-37l-19 -2c0,11 3,21 8,30 6,9 13,19 22,29l-22 9 -6 -5c-33,-30 -62,-55 -87,-76 -25,-21 -50,-38 -76,-50 -12,-8 -26,-13 -41,-17 -16,-4 -30,-6 -43,-6 -31,0 -51,8 -61,24 -42,53 -80,91 -115,116 -35,24 -63,43 -85,58 -21,15 -37,41 -47,76 -8,29 -15,74 -20,136l-100 44c-11,-8 -24,-17 -38,-24 -6,4 -11,9 -13,14 7,8 14,16 21,24l-31 13 -21 6c-2,-4 -4,-8 -4,-13 0,-12 6,-26 17,-44 31,-33 53,-60 67,-81 14,-20 21,-44 21,-71 -3,-4 -9,-5 -18,-5 -15,0 -37,5 -64,16l-1 28c2,2 4,3 7,3 2,0 6,-2 12,-6 6,-4 10,-6 13,-6 4,0 7,3 9,9 -7,11 -20,30 -40,56 -20,27 -34,51 -44,72 -9,20 -13,40 -14,62l-46 21 0 -3c0,-12 1,-22 3,-32 2,-9 7,-25 15,-47 7,-21 13,-38 15,-49 3,-11 5,-22 5,-34 0,-9 -1,-18 -4,-27 -42,40 -63,99 -63,179 0,8 0,17 0,25l-11 5c0,-9 0,-19 0,-29 0,-51 6,-101 19,-151 21,-53 37,-94 49,-121 11,-27 27,-54 47,-81 59,-61 127,-110 205,-146 78,-36 163,-55 253,-59 48,-3 86,-5 112,-6 25,-2 60,-4 103,-7 44,-3 82,-6 114,-8 32,-2 72,-6 119,-10 -12,27 -21,54 -26,84 -5,28 -10,62 -14,103zm-135 59l-19 8c-20,-14 -42,-27 -64,-39 -33,-17 -68,-31 -106,-42 -20,0 -37,3 -53,8 -16,4 -30,11 -43,20 -13,9 -27,21 -41,34 -14,13 -25,24 -34,32 -35,39 -63,86 -85,141 -5,13 -9,26 -13,40l-14 6c7,-27 16,-53 28,-79 29,-65 68,-118 117,-159 19,-18 39,-33 60,-44 22,-12 44,-17 65,-17 11,0 23,2 37,6 60,19 115,47 165,85zm-620 265c-15,-3 -23,-10 -23,-19 24,-20 41,-45 51,-74 10,-30 16,-62 16,-97 0,-18 -2,-39 -6,-63 6,-1 11,-3 16,-4 4,-2 7,-3 10,-3 3,0 6,1 9,4 7,23 11,46 11,70 0,16 -1,33 -4,51 -12,62 -39,107 -80,135zm-95 -76c0,11 -2,16 -7,16 -3,0 -9,-4 -18,-13 -8,-20 -13,-41 -13,-64 0,-24 4,-49 12,-76 12,-29 32,-57 59,-85 27,-27 53,-46 76,-57 -4,13 -9,23 -16,30 -7,8 -19,20 -36,37 -16,17 -28,30 -34,41 -22,37 -33,75 -33,116 0,19 4,37 10,55zm67 -127c-17,-2 -27,-3 -31,-4 -4,-1 -6,-2 -6,-4 0,-2 1,-4 1,-6 1,-3 2,-8 3,-14 9,-15 21,-29 36,-40 15,-11 33,-21 54,-28 20,-8 40,-15 58,-22 18,-7 33,-14 47,-22 2,-3 3,-9 3,-19 -4,-2 -7,-4 -7,-4 -3,2 -8,3 -14,3 15,-11 30,-16 46,-16 8,0 15,1 21,3 3,4 4,5 4,5 -8,19 -21,34 -38,46 -17,13 -39,25 -67,36 -27,11 -47,20 -60,26 -14,7 -26,16 -38,27 2,9 15,13 37,13 0,8 -2,13 -5,17l-44 3zm126 -44l-2 0c0,-1 -1,-4 -4,-9 -2,-5 -3,-8 -3,-11 0,-3 1,-5 4,-7 21,-9 37,-17 45,-22 9,-5 18,-12 27,-21 6,-6 17,-17 35,-33 18,-15 31,-28 40,-39 10,-11 16,-22 18,-34 -5,0 -8,0 -10,0 -1,1 -4,1 -6,1 -2,1 -5,1 -8,1 -2,1 -5,1 -8,2 -40,9 -67,17 -83,22 -17,4 -34,13 -51,24 -18,12 -31,27 -38,46l-24 5c0,-21 8,-39 24,-52 32,-30 72,-49 120,-59 47,-9 101,-14 161,-14 -47,54 -88,98 -123,131 -35,32 -73,55 -114,69zm556 -119c-8,-2 -23,-5 -44,-11 -21,-5 -40,-11 -54,-18 -26,-15 -45,-26 -57,-36 -13,-9 -22,-19 -29,-32 45,-7 81,-11 108,-11 26,0 47,3 64,8 0,13 -1,19 -2,19 -25,-3 -59,-4 -102,-4 -3,2 -4,5 -4,9 2,3 9,10 22,20 31,21 76,32 136,33 2,6 2,11 2,13 0,7 -2,10 -7,10l-33 0zm-9 -40l-2 0c0,-8 1,-14 3,-20 2,-6 4,-11 6,-17 3,-5 7,-11 11,-17 5,-6 8,-11 10,-13 20,-12 42,-18 66,-18 10,0 18,1 26,3 2,3 3,5 3,8l-31 62 -8 -16 7 -23c-3,-4 -8,-7 -15,-9 -16,0 -27,5 -33,15 -10,8 -20,24 -29,47 -2,-1 -4,-1 -7,-1 -3,0 -5,0 -7,-1z"/>
    </clipPath>
 </defs>
 <g id="Capa_x0020_1">
  <metadata id="CorelCorpID_0Corel-Layer"/>
  <path class="fil0 str0" d="M10506 4632c4333,0 7846,2720 7846,6076 0,3356 -3513,6076 -7846,6076 -4334,0 -7846,-2720 -7846,-6076 0,-3356 3512,-6076 7846,-6076z"/>
  <g id="_2308610975680">
   <polygon class="fil1" points="7474,7643 7489,8168 8144,8165 8153,7676 "/>
   <polygon class="fil1" points="7011,8752 7684,8763 7684,8256 7268,8253 7034,8248 "/>
   <path class="fil2" d="M8153 9294c0,-133 24,-342 -23,-435 -129,-74 -466,-28 -648,-27l3 509c169,2 565,63 668,-47z"/>
   <polygon class="fil2" points="9211,7590 9205,7080 8546,7065 8544,7591 "/>
   <path class="fil2" d="M9301 6403l662 14 -2 -508c-770,-46 -666,-11 -665,175 0,104 3,214 5,319z"/>
   <polygon class="fil2" points="8236,6984 8913,6997 8910,6483 8247,6483 "/>
   <polygon class="fil2" points="12033,8169 12695,8163 12697,7658 12020,7659 "/>
   <path class="fil2" d="M12019 6992l676 2c6,-161 25,-386 -20,-502l-639 -10 -17 510z"/>
   <polygon class="fil2" points="12795,8169 13449,8170 13447,7656 12780,7656 "/>
   <path class="fil2" d="M7481 6992c200,8 492,38 671,-20l0 -478 -650 -14 -21 512z"/>
   <polygon class="fil2" points="12779,6994 13448,6996 13449,6481 12800,6482 "/>
   <polygon class="fil2" points="8538,6417 9208,6417 9204,5907 8554,5903 "/>
   <polygon class="fil2" points="8240,8160 8903,8169 8914,7656 8243,7660 "/>
   <polygon class="fil2" points="8469,7571 8446,7081 7782,7084 7784,7588 "/>
   <path class="fil2" d="M13087 8761c191,8 482,31 661,-17l-11 -489 -649 1 -1 505z"/>
   <polygon class="fil2" points="12028,9341 12701,9337 12683,8830 12031,8837 "/>
   <polygon class="fil2" points="11264,6977 11934,6997 11935,6484 11274,6484 "/>
   <polygon class="fil2" points="8996,6992 9665,6991 9666,6493 9011,6480 "/>
   <polygon class="fil2" points="12323,6400 12993,6419 12989,5903 12334,5906 "/>
   <polygon class="fil2" points="12787,9342 13455,9342 13432,8831 12792,8831 "/>
   <polygon class="fil2" points="10051,6414 10716,6417 10712,5905 10069,5904 "/>
   <polygon class="fil2" points="11574,7594 12232,7577 12231,7083 11563,7081 "/>
   <path class="fil2" d="M11561 6415c189,5 505,30 671,-19 1,-19 9,-560 -40,-470 -4,7 -17,-8 -22,-9l-588 -11 -21 509z"/>
   <path class="fil2" d="M9759 5807l647 16 17 -510c-186,-9 -498,-30 -665,16l1 478z"/>
   <polygon class="fil2" points="9001,5820 9658,5819 9668,5327 8999,5306 "/>
   <polygon class="fil2" points="11266,5810 11917,5822 11939,5312 11267,5312 "/>
   <polygon class="fil2" points="12333,7590 12989,7588 12993,7076 12324,7095 "/>
   <polygon class="fil2" points="10509,6991 11175,6991 11176,6493 10523,6480 "/>
   <polygon class="fil2" points="10806,6408 11472,6416 11470,5910 10819,5905 "/>
   <polygon class="fil2" points="12325,8761 12996,8760 12974,8253 12327,8261 "/>
   <polygon class="fil2" points="10516,5818 11168,5819 11178,5326 10511,5307 "/>
   <polygon class="fil2" points="9756,6975 10419,6997 10418,6484 9764,6484 "/>
   <polygon class="fil2" points="7779,8761 8445,8760 8444,8264 7797,8254 "/>
   <polygon class="fil2" points="8242,9345 8232,9334 8842,9341 8827,8831 8247,8840 "/>
   <path class="fil2" d="M9278 7572c185,45 215,-43 368,-101 49,-83 212,-103 316,-162l-2 -230 -657 11 -25 482z"/>
   <path class="fil2" d="M8537 8764l306 -1c9,-195 81,-362 85,-510l-366 1 -25 510z"/>
   <path class="fil3" d="M11389 9382l10 45c437,-55 332,32 329,-512 -7,-1350 -1465,-1856 -2322,-915 -312,342 -331,844 -294,1387l213 32c-61,-558 52,-504 151,-740 304,-725 788,80 844,134 -24,-316 -161,-429 -374,-515l-120 -60c232,-74 462,-342 797,244l92 128c-28,-357 -162,-432 -363,-588 535,-104 454,39 676,348 3,-167 -51,-235 -118,-362 535,106 323,315 489,570 92,143 142,143 126,402 -12,200 -37,261 -136,402z"/>
   <path class="fil3" d="M7529 10940c129,279 387,96 546,-28l1356 -1087c422,-339 818,-176 1320,-318 339,-96 962,-458 598,-846 -44,40 -14,6 -57,69 -206,295 -402,499 -828,618 -596,167 -835,-13 -1019,-454 -185,281 184,457 -183,762l-1183 841c-132,93 -500,311 -550,443z"/>
   <path class="fil4" d="M7529 10940c50,-132 418,-350 550,-443l1183 -841c367,-305 -2,-481 183,-762 184,441 423,621 1019,454 426,-119 622,-323 828,-618 43,-63 13,-29 57,-69 364,388 -259,750 -598,846 -502,142 -898,-21 -1320,318l-1356 1087c-159,124 -417,307 -546,28zm2147 -3452c-94,121 -217,153 -351,303 -116,131 -194,229 -273,402 -227,492 -57,866 -168,1193 -273,113 -1532,-54 -1929,49 -25,123 -63,427 35,503 120,70 1408,24 1671,27 -72,98 -203,175 -316,251 -196,134 -852,551 -885,696 -82,364 255,573 528,364 352,-270 1491,-1279 1808,-1375 291,-88 626,-41 934,-126 432,-120 448,-215 659,-393 99,-141 124,-202 136,-402 16,-259 -34,-259 -126,-402 -166,-255 46,-464 -489,-570 67,127 121,195 118,362 -222,-309 -141,-452 -676,-348 201,156 335,231 363,588l-92 -128c-335,-586 -565,-318 -797,-244l120 60c213,86 350,199 374,515 -56,-54 -540,-859 -844,-134 -99,236 -212,182 -151,740l-213 -32c-37,-543 -18,-1045 294,-1387 857,-941 2315,-435 2322,915 3,544 108,457 -329,512 -14,92 14,10 -35,83 -228,342 -900,435 -1264,450 427,12 3829,36 3975,-16 0,0 147,-462 -63,-520l-1977 -15c-253,-52 -8,-526 -185,-1059 -104,-314 -262,-487 -454,-670 -170,-163 -466,-307 -785,-347 -509,-63 -602,106 -935,155z"/>
   <path class="fil4" d="M11159 7435c107,59 183,154 312,149l-1 -505 -662 10 3 188c87,72 248,103 348,158z"/>
   <path class="fil4" d="M12232 8313c-30,-98 -194,-62 -326,-60l87 515 239 -25c1,-59 9,-399 0,-430z"/>
   <path class="fil4" d="M11497 7655c38,80 -1,21 57,90 35,41 21,16 68,63 38,39 59,67 98,126 65,98 76,214 214,232l2 -510 -439 -1z"/>
   <path class="fil5" d="M7797 8254l647 10 1 496 -666 1 18 -507zm765 0l366 -1c-4,148 -76,315 -85,510l-306 1 25 -510zm-319 -594l671 -4 -11 513 -663 -9 3 -500zm-769 -17l679 33 -9 489 -655 3 -15 -525zm1529 15l335 0c-49,96 -13,46 -91,120 -116,111 -225,303 -229,295 -2,-6 -12,12 -20,19l5 -434zm-534 -87l-685 17 -2 -504c-63,68 -68,112 -67,258 0,69 3,139 3,215l-193 9c2,-2 -47,-208 134,-69 -465,-41 -118,53 -382,92 4,8 6,19 9,24 3,6 9,18 12,25 5,7 13,19 17,26l46 54c-56,-172 -55,-210 132,-248l-19 173c-89,128 -29,174 -38,446 -7,221 -35,117 -63,93 -122,-107 -32,75 -11,-43 24,-130 32,-28 35,-27 -26,25 -28,36 -56,68l-73 73 416 3 0 507 -673 -11c66,64 20,36 127,64 11,2 116,6 132,6 85,-1 130,-14 212,10 182,-1 519,-47 648,27 47,93 23,302 23,435 39,111 -16,18 89,51l5 -505 580 -9 15 510 -610 -7c65,59 2,19 94,51 74,25 -2,4 65,15l493 -14c111,-327 -59,-701 168,-1193 79,-173 157,-271 273,-402 134,-150 257,-182 351,-303l-30 -17c-153,58 -183,146 -368,101l-67 18 -667 1 2 -526c-98,111 -61,462 -40,533 -102,0 -33,7 -37,-27z"/>
   <path class="fil6" d="M10053 7288c270,-31 385,-42 663,-12l-3 -196 -659 -3 -1 211z"/>
   <path class="fil7" d="M8998 8092c8,-7 18,-25 20,-19 4,8 113,-184 229,-295 78,-74 42,-24 91,-120l-335 0 -5 434z"/>
  </g>
  <path class="fil8" d="M3569 5729c51,57 93,138 125,242 31,105 40,196 25,274 -15,78 -47,159 -99,244 -23,38 -57,85 -102,140 -1,1 -5,6 -12,14 -8,10 -14,19 -19,28 -22,26 -39,45 -54,55 -173,133 -282,186 -329,160l-77 -64 33 -39c2,-3 20,-12 55,-29 35,-17 59,-31 71,-41 14,-11 42,-41 86,-92 47,-54 74,-88 80,-101 26,-59 43,-100 50,-125 14,-46 19,-93 16,-141 -6,-90 -44,-183 -114,-279 -10,-14 -26,-30 -48,-48 -76,-63 -167,-121 -273,-173 -54,-26 -104,-41 -152,-44 -90,-4 -184,16 -283,62 -83,40 -137,75 -161,104 -27,34 -47,61 -59,82 -3,7 -17,48 -41,123 -10,31 -6,71 11,122 17,41 36,77 59,105 23,29 58,71 104,125 36,37 91,92 165,163l397 338c186,159 330,214 432,165 57,-69 114,-137 172,-205 46,-53 103,-106 171,-159 27,-26 54,-52 83,-77 38,-33 72,-51 103,-52 36,26 55,62 56,107 0,16 -6,31 -18,46l-311 280 -175 214c-45,64 -123,162 -234,295l-134 216c-12,15 -29,27 -50,36 -28,15 -51,15 -68,1l-7 -6c-12,-9 -17,-18 -18,-27 4,-34 9,-88 13,-162 0,-62 -18,-121 -54,-177 -95,-143 -266,-316 -513,-518 -71,-59 -133,-105 -184,-140 -16,-13 -42,-31 -78,-53 -36,-23 -90,-46 -161,-70 -14,-5 -36,-13 -66,-21 -48,-10 -97,-6 -145,11 -54,20 -92,21 -114,3 -38,-31 -44,-62 -17,-92l317 -322 297 -497c68,-84 110,-133 127,-147 16,-15 39,-37 70,-64 35,-33 73,-61 112,-83 74,-42 165,-64 272,-68 17,5 42,11 73,18 165,33 326,113 482,241 51,43 89,76 113,102zm2642 -551l-874 527 -49 -82c9,-3 14,-6 14,-8 1,-6 -2,-11 -8,-17 34,-30 83,-77 148,-140 59,-57 87,-117 85,-181 0,-12 -6,-40 -19,-84 -13,-44 -24,-74 -34,-90 -30,-51 -63,-95 -98,-131 -10,-4 -24,-14 -42,-29 -14,-23 -30,-47 -49,-72l-7 -2c-5,-2 -12,-7 -21,-15 -9,-7 -44,-47 -103,-119 -101,243 -183,444 -243,602 -51,125 -117,314 -198,569 -25,92 -40,144 -45,156 -19,42 -53,79 -104,109 -27,17 -46,27 -60,33 -39,16 -64,16 -74,-2 -10,-16 1,-44 33,-85 32,-41 46,-110 43,-209 -1,-78 -31,-189 -88,-332 -48,-110 -95,-219 -141,-329 -90,-221 -123,-429 -100,-623 4,-24 16,-91 35,-204l-194 81 -196 119c-30,17 -67,31 -113,41 -46,9 -80,10 -102,1 -40,-52 -41,-90 -1,-114 -16,9 16,-4 96,-40 180,-80 313,-146 400,-198l545 -329 191 -141 166 -100c29,36 53,75 72,119 -39,23 -72,45 -100,64 -10,21 2,59 36,115 16,27 41,57 75,92 27,30 54,58 81,85 199,228 427,479 684,754 29,21 68,49 117,85 39,29 81,45 126,50 15,-2 32,-5 50,-7 19,-3 33,4 42,19 8,13 16,33 24,62zm-1288 -675c-188,-204 -324,-281 -406,-231 -40,24 -57,100 -49,228 6,76 15,143 29,202 14,59 50,185 108,378 47,159 79,288 96,385 45,-140 141,-438 288,-894 -7,-6 -29,-28 -66,-68zm3215 2l-1502 477 -222 107c-17,8 -39,10 -65,6 -31,-2 -49,-13 -56,-33 2,6 0,-7 -7,-40 4,-3 29,-37 74,-101 27,-37 45,-77 55,-118 11,-42 15,-74 14,-95 -7,-174 -62,-408 -165,-704 -47,-134 -84,-229 -112,-284 -47,-90 -109,-169 -183,-237 -15,-12 -36,-23 -63,-30 -28,-8 -56,-16 -85,-23 -29,-7 -47,-23 -55,-46 -17,-47 -5,-76 34,-87l437 -110 557 -292c49,-17 98,-29 147,-38 49,-8 125,-17 227,-27 61,1 126,14 193,41 98,40 193,144 284,313 28,49 57,119 89,211 51,147 80,263 85,346 3,51 2,123 -3,217 -4,68 -26,166 -66,294 -31,97 -62,194 -95,291 37,-2 66,-7 87,-14 12,-4 51,-28 119,-71 36,-24 73,-55 109,-93 23,-28 60,-69 110,-124l22 -8 12 32c12,37 20,117 24,240zm-837 -1100c-73,-140 -159,-237 -257,-290 -44,-23 -88,-39 -130,-46 -74,-11 -138,-7 -191,11 -40,14 -70,26 -89,38 -38,24 -71,52 -101,84 -29,32 -46,60 -50,86 -21,131 6,307 79,527l160 494c35,107 76,194 123,261 22,29 52,57 92,82 39,26 74,40 105,42 38,2 102,-5 190,-21 46,-7 82,-15 108,-24 65,-23 109,-60 130,-111 56,-128 69,-292 37,-493 -21,-132 -68,-302 -140,-509 -5,-14 -27,-58 -66,-131zm3031 834l-1016 100 -9 -95c10,1 15,0 16,-2 3,-4 3,-10 1,-18 43,-13 107,-34 194,-63 77,-26 128,-68 154,-127 5,-11 11,-39 19,-84 7,-45 10,-77 8,-95 -6,-59 -17,-113 -32,-161 -7,-8 -16,-22 -26,-44 -2,-27 -7,-55 -13,-86l-5 -5c-4,-4 -8,-11 -13,-22 -5,-11 -19,-62 -42,-153 -196,176 -355,323 -479,440 -99,90 -240,232 -423,428 -62,72 -98,112 -108,121 -34,31 -81,49 -140,55 -31,3 -54,4 -68,3 -43,-2 -65,-13 -67,-34 -2,-18 21,-39 67,-62 46,-23 89,-80 129,-170 32,-72 53,-184 63,-338 4,-120 9,-239 14,-357 14,-239 74,-440 178,-606 14,-20 54,-76 120,-169l-211 -10 -228 22c-34,4 -74,0 -120,-11 -45,-11 -76,-25 -92,-42 -14,-65 2,-100 49,-104 -19,1 16,3 104,5 196,5 345,3 446,-7l633 -62 233 -45 193 -19c11,45 15,91 14,138 -45,5 -85,10 -119,15 -17,14 -23,54 -16,120 3,30 12,69 28,115 11,38 24,75 36,111 82,291 180,617 294,975 17,32 40,74 69,127 23,43 54,76 92,99 15,5 31,10 49,16 17,5 27,17 29,35 1,15 0,37 -5,66zm-872 -1163c-82,-265 -172,-393 -268,-383 -47,4 -94,66 -142,184 -27,71 -47,136 -60,195 -13,59 -35,189 -66,388 -26,164 -52,294 -79,389 101,-107 316,-335 645,-683 -4,-8 -14,-38 -30,-90zm2674 788c-9,26 -40,91 -92,195 -8,14 -25,29 -49,45 -25,16 -37,25 -37,27l-3 6c-22,36 -76,70 -163,102 -70,24 -129,39 -176,45 -33,6 -81,13 -144,22 -69,4 -136,4 -202,0 -50,-3 -82,-6 -98,-9 -51,-11 -125,-31 -223,-60 -40,-15 -74,-30 -103,-46 -3,-3 -30,-23 -81,-61 -87,-65 -144,-120 -173,-165 -75,-118 -116,-226 -121,-325 -4,-65 -5,-110 -3,-137 4,-69 16,-125 36,-167 7,-14 11,-26 13,-34 22,-75 68,-146 139,-214 70,-68 139,-110 205,-127 53,-13 108,-18 165,-14 187,11 323,87 408,228 19,30 32,67 38,111 2,6 1,33 -2,80 -4,64 -13,119 -27,165 -15,55 -53,110 -113,167 -26,23 -50,34 -72,32 -20,-1 -37,-4 -51,-9 -14,-5 -30,-39 -50,-102l2 -28c91,-31 139,-90 144,-176 3,-46 -4,-90 -20,-134 -16,-45 -39,-76 -67,-94 -21,-12 -39,-18 -53,-19 -3,0 -8,0 -14,-1 -5,0 -8,0 -9,0 -55,-4 -90,1 -107,12 -55,38 -96,76 -121,114 -8,24 -19,57 -32,100 -30,87 -47,156 -50,208 -5,82 8,170 38,262 38,117 94,196 168,240 50,28 110,52 181,73 5,0 24,1 58,4 35,2 54,3 59,3 74,-10 146,-45 215,-104 69,-60 121,-131 156,-214 10,-22 24,-55 41,-99 14,-61 23,-107 24,-138 1,-8 0,-22 -3,-42 -3,-19 -4,-34 -3,-45l8 -141c1,-9 -3,-40 -11,-94 -9,-54 -14,-83 -15,-87 -37,-56 -88,-118 -151,-185 -3,-1 -9,-1 -18,-2 -19,1 -41,-7 -67,-25 -42,-27 -64,-42 -65,-44 -20,-10 -50,-21 -89,-34 -111,-8 -221,-42 -332,-100 -51,-36 -121,-83 -209,-142 -86,-49 -150,-108 -191,-179 42,3 100,2 173,-2 34,-4 65,-15 94,-34 37,-23 86,-70 147,-143 35,-43 55,-64 60,-64 11,0 20,7 27,20 2,15 6,35 10,62 2,52 22,111 62,177 40,67 86,120 138,160 36,29 90,60 161,93 45,26 112,57 200,96 152,56 261,138 328,245 36,46 76,106 120,180 10,38 19,72 25,101 8,48 10,102 6,164 -8,140 -21,240 -39,301zm2093 -658c-84,178 -156,351 -218,520 -2,4 -4,8 -8,11l-3 2c0,2 -2,4 -4,6 -48,15 -79,20 -91,17 -3,-1 -14,-12 -34,-34 -5,-4 -11,-7 -16,-11 5,-12 17,-43 38,-95 14,-39 25,-70 31,-94 1,-2 1,-3 1,-3l0 0 -2 -1c0,0 -2,-1 -6,-5 8,-21 16,-45 24,-73 31,-117 30,-224 -1,-319 -9,-28 -32,-58 -71,-89 -72,-64 -133,-102 -185,-116 -7,-2 -16,-4 -27,-7 -10,-3 -16,-4 -16,-4 -52,-14 -83,-21 -91,-21 -38,-3 -70,-2 -97,3 -115,25 -224,91 -328,198 -92,97 -159,199 -200,308 60,30 109,51 148,61l378 100 23 105 -66 59 -554 -146c0,-9 -6,13 -20,65 -19,73 -27,174 -24,303 3,141 35,258 96,351 19,30 56,66 109,108 10,7 36,21 79,43 32,17 73,32 123,45 89,24 159,24 210,2 109,-51 197,-150 265,-298 17,-38 36,-80 57,-125l3 -2 6 -2c4,-3 6,-7 7,-11l61 -230c4,10 12,16 24,19 30,6 60,13 89,21 2,53 -13,136 -46,246 -11,38 -30,124 -56,260 -12,58 -28,174 -48,348 -4,31 -6,48 -7,52 -5,20 -26,37 -64,50l-123 -147 -68 -18 -312 -9c-110,-10 -173,-18 -187,-24 -273,-123 -461,-331 -564,-624 -3,-20 -8,-46 -15,-80 -34,-158 -32,-313 8,-464 1,-4 9,-24 22,-61 14,-37 23,-62 26,-76 38,-113 109,-225 212,-334 114,-121 234,-196 360,-227 90,-23 157,-38 200,-46 75,-12 141,-16 199,-11 10,0 49,9 117,27 105,28 190,58 254,89 61,27 140,78 236,152l42 17 85 -41 71 9c6,8 15,19 27,33 -10,57 -36,129 -79,218zm1515 2513c-9,-2 -20,-7 -32,-13 -5,-2 -9,-4 -15,-7 -3,-4 -6,-6 -7,-7 -56,-28 -105,-72 -148,-133 -53,-76 -67,-149 -44,-217 3,-8 5,-23 7,-45 4,-71 12,-171 24,-300 12,-56 27,-139 44,-250 -129,0 -269,-37 -420,-112 -61,-31 -149,-97 -262,-197 -37,35 -77,95 -120,182 -31,62 -49,117 -55,162 -2,22 -4,53 -5,94 5,30 17,63 38,98 2,3 11,10 27,19 16,9 29,18 40,25 48,33 96,67 146,100 61,45 103,87 124,128 -10,34 -30,58 -61,73 -31,14 -57,16 -77,6 11,6 -25,-22 -109,-82 -123,-91 -215,-150 -274,-178l-310 -144c-91,-27 -160,-52 -206,-75 -70,-35 -95,-72 -76,-110 14,-28 36,-44 66,-47 38,-2 77,-6 118,-14 58,-12 117,-47 176,-105 47,-57 96,-114 146,-172 6,-8 32,-52 79,-133 73,-129 128,-230 165,-304 58,-115 103,-217 134,-305 6,-32 12,-73 20,-124 11,-60 15,-106 14,-138 -1,-33 -12,-68 -34,-104 -27,-41 -43,-70 -48,-89 -1,-7 3,-21 13,-42 21,-40 45,-53 73,-39 4,2 12,9 25,22 25,29 85,71 179,124 84,51 149,86 194,104l533 214c90,36 191,98 303,186 44,36 84,93 117,172 40,88 53,172 38,249 -2,18 -18,58 -49,121 -29,58 -60,104 -90,138 -31,34 -87,73 -167,115 -34,18 -55,37 -65,57 -8,15 -9,50 -5,104 5,67 7,106 6,118 -9,84 -31,204 -66,359 -11,22 -26,52 -43,92 -18,39 -38,98 -60,177 -2,15 5,41 23,79 -1,2 5,7 19,14 73,33 100,68 82,103 -9,18 -31,32 -68,42 -28,8 -47,11 -57,9zm118 -1620c15,-85 -5,-168 -59,-251 -48,-69 -104,-121 -171,-154 -40,-20 -77,-32 -109,-35 -32,-4 -70,-5 -114,-4 -53,15 -96,44 -128,85 -33,41 -65,81 -95,121l-8 10c-5,5 -9,9 -12,15l-136 273c145,-10 296,24 450,101 84,41 143,77 179,106 14,-11 28,-17 40,-18 64,-51 106,-98 129,-142 16,-34 28,-69 34,-107zm-499 320c-40,-21 -93,-36 -157,-48 -69,-14 -118,-15 -147,-4l166 83c18,9 85,11 200,7 -51,-31 -72,-43 -62,-38zm1191 1947l-210 -185 -90 -67c-2,-2 -19,-16 -49,-44 -30,-27 -47,-42 -51,-45l-216 -129c-22,-14 -38,-33 -46,-55 -5,-12 -8,-28 -9,-48l35 -47c157,14 272,-7 348,-64 135,-102 297,-283 485,-542 72,-100 133,-194 183,-282 9,-31 22,-70 38,-117 16,-47 29,-94 39,-141 4,-29 0,-64 -13,-105 -21,-55 -32,-88 -33,-97 -1,-8 6,-23 22,-45 23,-31 47,-38 72,-19 4,3 11,12 21,29 10,16 27,36 51,59 87,79 178,154 273,225 -5,-4 8,4 40,25 37,25 95,58 172,97 38,13 56,19 56,19 37,27 44,55 22,85 -18,24 -39,39 -61,43 -8,2 -29,1 -65,-2 -53,-6 -101,4 -145,30 -13,9 -29,18 -49,26l-3 -3 -2 3c-63,53 -125,114 -186,184 -70,81 -125,148 -165,200l-257 342c-46,60 -71,92 -73,95 -22,33 -49,86 -80,160 -10,23 -15,61 -17,113 0,26 9,65 27,117 3,7 10,19 21,38 19,32 31,55 37,69 14,36 15,63 4,80 -16,22 -39,30 -68,26 -24,-2 -43,-11 -58,-28zm1506 1639l-652 -784 73 -61c5,8 8,13 11,13 5,-1 10,-4 15,-11 35,29 88,71 161,126 65,49 129,68 191,56 12,-1 39,-12 80,-31 42,-19 70,-35 84,-47 46,-38 84,-77 115,-117 3,-10 10,-25 22,-46 21,-17 42,-37 64,-59l1 -7c2,-5 5,-13 12,-23 6,-10 40,-50 102,-120 -255,-64 -466,-114 -632,-150 -131,-32 -328,-68 -592,-110 -95,-11 -148,-18 -161,-21 -45,-12 -86,-41 -124,-86 -20,-24 -34,-42 -41,-54 -22,-37 -25,-61 -10,-74 15,-12 44,-6 90,20 45,25 116,29 213,11 77,-13 182,-59 315,-137 101,-64 202,-127 303,-189 206,-122 406,-186 601,-192 25,0 93,1 208,4l-110 -180 -146 -177c-22,-26 -41,-61 -58,-105 -17,-44 -22,-78 -17,-100 46,-48 83,-54 113,-18 -12,-15 6,15 54,89 106,165 191,287 256,365l407 489 168 168 124 149c-31,34 -66,64 -107,89 -29,-35 -55,-65 -78,-90 -22,-6 -58,12 -109,54 -23,20 -50,49 -79,87 -25,31 -49,62 -72,93 -195,232 -409,495 -642,791 -17,31 -39,74 -66,128 -23,43 -33,87 -31,132 4,14 9,31 14,48 6,18 1,33 -13,45 -11,9 -30,20 -57,32zm474 -1374c173,-217 228,-362 167,-437 -30,-36 -108,-40 -233,-14 -74,17 -139,37 -195,60 -56,22 -176,77 -358,163 -150,70 -272,121 -366,153 145,23 454,73 927,150 5,-7 24,-32 58,-75z"/>
  <g id="_2308670251520">
   <g>
    <path class="fil8" d="M8470 12869c32,-4 82,-6 149,-7 67,0 124,-3 172,-9 48,-5 94,-17 138,-35 44,-18 82,-46 114,-83 46,-52 69,-118 69,-200 0,-32 -3,-60 -10,-86 -3,-11 -8,-33 -13,-66 -6,-34 -8,-66 -8,-98 0,-28 2,-51 8,-70 -27,12 -51,21 -71,27 -20,6 -41,9 -63,9 -22,0 -47,-4 -77,-12 -31,-6 -66,-9 -105,-9 -122,0 -211,31 -268,92 -15,22 -23,44 -23,66 0,24 8,45 25,64 17,18 41,29 71,33 56,0 99,-16 129,-48 4,-5 8,-12 13,-23 4,-11 8,-18 13,-21 34,35 51,91 51,168 -7,53 -27,91 -61,114 -14,7 -30,11 -50,11 -25,0 -59,-9 -101,-28 -62,-35 -115,-81 -158,-138 -44,-57 -73,-121 -89,-192 -6,-29 -9,-58 -9,-89 0,-58 10,-115 32,-170 21,-55 49,-102 84,-141 9,-8 20,-18 34,-31 14,-14 28,-25 41,-34 13,-9 27,-16 43,-21 16,-5 33,-7 53,-7 38,10 74,24 106,41 32,18 62,37 90,59 29,22 60,50 95,82 34,33 62,60 82,79 0,0 2,-1 7,-5 10,-175 35,-344 73,-504l-559 48c-55,3 -99,9 -134,18 -100,23 -186,64 -259,122 -72,58 -128,129 -168,214 -39,81 -58,168 -58,262 0,105 24,202 74,289 32,62 65,113 101,153 36,39 74,70 115,93 40,22 83,39 128,50 45,11 103,22 174,33zm18 -10c-51,-1 -103,-9 -155,-25 -53,-15 -102,-36 -148,-62 -49,-31 -93,-67 -131,-108 -38,-40 -70,-85 -96,-135 -26,-50 -45,-104 -57,-161 -8,-38 -12,-74 -12,-110 0,-49 6,-99 19,-148 13,-50 30,-97 53,-141 24,-44 51,-84 83,-120 45,-53 99,-95 163,-125 63,-31 131,-52 201,-64 71,-13 144,-21 218,-26 74,-4 155,-9 242,-14l165 -11c-19,74 -34,153 -46,237 -11,84 -17,158 -18,222 -65,-66 -123,-118 -174,-157 -50,-40 -106,-69 -168,-89 -14,-4 -26,-6 -37,-6 -21,0 -43,6 -64,18 -22,11 -42,25 -61,43 -49,42 -88,95 -117,160 -29,64 -43,132 -43,202 0,40 4,76 13,111 14,54 37,104 66,150 31,46 67,85 109,118 42,34 89,61 141,81 11,2 20,3 26,3 35,0 63,-9 85,-26 21,-16 35,-36 42,-61 6,-24 11,-55 12,-93 -15,-92 -52,-154 -108,-187 -10,-7 -23,-10 -37,-10 -22,0 -43,7 -63,20 0,2 -3,6 -7,12 -5,7 -8,12 -11,17 -2,4 -3,8 -3,13 0,7 4,14 11,22 7,5 17,8 28,8 13,0 21,-3 25,-8 0,-5 0,-8 -1,-8 -8,0 -16,2 -22,5 -15,-5 -22,-13 -22,-23 9,-21 21,-34 38,-39 3,-2 10,-3 19,-3 22,0 41,8 58,23 3,6 4,14 4,23 0,18 -5,35 -17,50 -23,22 -54,34 -93,34 -21,0 -40,-3 -56,-10 -31,-19 -46,-43 -46,-70 0,-21 8,-41 25,-62 16,-20 35,-36 57,-47 66,-27 131,-40 198,-40 57,0 107,10 152,29 18,2 31,3 37,3 30,0 61,-9 93,-26 -2,18 -3,31 -3,38 0,21 3,46 8,75 6,29 9,49 10,62 20,48 29,95 29,141 -13,87 -51,156 -113,208 -33,23 -68,40 -107,50 -39,11 -75,17 -111,20 -35,3 -83,6 -144,8 -61,2 -107,5 -139,9zm-14 -48c19,2 47,3 86,3 46,0 93,-3 142,-9 50,-6 99,-15 148,-28 28,-10 53,-21 76,-32 22,-12 43,-27 63,-45 19,-18 33,-41 42,-68 7,-23 10,-49 10,-78 0,-54 -11,-103 -34,-148 -5,-6 -7,-17 -7,-34 0,-20 5,-40 13,-59 -11,8 -23,12 -33,12 -9,0 -26,-5 -51,-15 -25,-8 -49,-16 -72,-23 -23,-7 -48,-12 -74,-16 -26,-4 -52,-6 -79,-6 -6,1 -9,2 -12,2 -2,1 -5,1 -8,1 -3,0 -5,0 -7,1 44,26 84,59 118,98 35,40 55,83 60,132 2,16 3,27 3,34 0,41 -9,81 -27,118 -18,38 -44,70 -77,97 -32,12 -54,20 -64,23 -10,3 -21,5 -33,5 -18,0 -40,-7 -64,-19 -25,-13 -64,-39 -119,-77 -46,-36 -86,-77 -120,-123 -34,-47 -60,-97 -79,-152 -18,-55 -28,-112 -28,-171 0,-17 1,-30 2,-39 6,-88 15,-150 24,-186 10,-35 26,-61 48,-76 21,-15 49,-35 84,-59 35,-24 73,-62 115,-115 10,-16 31,-24 61,-24 13,0 28,2 43,6 15,4 29,9 41,16 26,13 51,29 77,51 24,21 53,46 86,75 33,30 61,52 86,67 4,-20 8,-51 13,-95 4,-43 9,-80 14,-109 5,-30 14,-58 26,-84 -47,4 -87,7 -119,10 -32,2 -70,5 -113,8 -44,3 -79,5 -104,7 -26,1 -63,3 -112,6 -90,3 -174,23 -253,59 -78,36 -146,85 -205,146 -20,26 -35,53 -47,81 -12,27 -28,68 -49,121 -13,49 -19,100 -19,151 0,44 4,84 13,122 29,141 108,254 236,341 35,26 78,47 128,63 50,17 100,28 151,34zm31 -15c-29,0 -58,-2 -88,-7 -29,-6 -57,-13 -83,-22 -26,-8 -53,-20 -82,-34 -3,-3 -10,-9 -18,-17 -9,-7 -15,-15 -20,-22 -5,-7 -8,-14 -8,-21l27 0c19,20 39,36 60,48 21,12 44,20 68,26 24,5 51,9 81,11 5,-3 10,-4 14,-4 3,0 7,1 12,1 5,1 9,2 11,2 6,0 10,-2 14,-4l0 -9c-13,-5 -27,-13 -41,-24 -14,-11 -28,-22 -43,-32 -15,-11 -30,-20 -45,-26 -16,-7 -33,-10 -52,-10 -8,-8 -12,-17 -12,-27 0,-1 0,-4 2,-7 41,0 74,8 100,24 17,13 41,32 73,56 32,25 54,42 67,52 13,10 30,23 53,40l-90 6zm479 -123c-4,7 -18,18 -43,33 -24,16 -51,30 -80,43 -29,13 -54,19 -75,19 -5,0 -10,-1 -17,-3 18,-5 32,-14 42,-27 11,-13 22,-32 33,-57 12,-25 21,-44 28,-57 7,-13 17,-24 29,-33 5,3 8,6 11,8 3,2 5,5 6,9 -2,6 -4,10 -7,12 -3,3 -8,7 -15,14 -1,1 -3,6 -8,17 -5,10 -9,19 -11,26 -2,7 -3,12 -3,16 0,4 1,9 4,15 2,3 5,5 9,5 7,-2 19,-9 34,-20 23,-19 34,-40 34,-61 -6,-10 -18,-25 -35,-45 -17,-20 -29,-35 -36,-47 -1,-10 -2,-19 -2,-27 2,-33 9,-58 22,-72 13,0 22,2 27,8 0,8 -3,19 -8,33 -6,13 -9,24 -10,31 4,13 14,27 28,41 15,15 30,28 43,41 6,10 9,22 9,34 0,11 -3,25 -9,44zm-633 53c0,0 -3,-1 -8,-3 -5,-2 -10,-3 -14,-3 -35,-18 -62,-51 -80,-98 -6,-6 -11,-15 -16,-27 -5,-13 -10,-21 -16,-24 -4,1 -7,4 -10,10 -2,5 -5,10 -6,14 -1,-1 -3,-1 -6,-1 -3,0 -6,-1 -8,-1 -3,-1 -4,-2 -5,-3 -2,-8 -2,-15 -2,-21 0,-22 7,-40 21,-52 22,10 39,29 53,55 14,26 27,51 41,74 13,24 30,40 52,48 6,-1 9,-4 9,-9l0 -9 23 9c1,3 5,9 12,18 7,9 11,16 11,23l-51 0zm-130 -73c-51,-5 -96,-24 -137,-58 -17,-16 -32,-40 -46,-72 -12,-31 -19,-58 -19,-81 20,0 32,2 35,7 2,12 4,22 6,31 2,9 4,17 6,24 2,7 5,15 10,23 16,27 38,48 66,64 27,16 57,26 89,31 0,1 1,4 4,10 2,5 4,10 4,12 0,4 -2,7 -6,9l-12 0zm117 -58l-17 0c-27,-33 -53,-60 -78,-81 -24,-21 -56,-41 -95,-59 1,-3 3,-7 5,-12 1,-6 3,-9 4,-10 13,4 26,9 37,15 12,6 25,14 39,25 15,10 27,19 37,26 22,20 38,37 50,51 12,14 18,29 18,45zm651 -30c0,0 0,1 0,1 0,0 -1,0 -1,1 -10,-3 -16,-9 -16,-17 8,-9 12,-29 12,-60 -8,-22 -22,-39 -40,-50 -19,-12 -47,-26 -85,-41 -11,-7 -23,-17 -38,-30 -14,-14 -30,-30 -48,-49 -18,-19 -30,-32 -35,-38 7,-1 16,-1 29,-1 30,0 59,5 88,15 28,10 54,24 77,42 18,22 27,40 27,54l-33 -13c-3,-2 -8,-7 -16,-15 -7,-8 -13,-13 -17,-16 -6,-5 -13,-9 -20,-14 -6,-4 -13,-8 -20,-11 -6,-3 -12,-5 -17,-5 -5,0 -9,2 -12,4 0,3 1,7 3,11 3,4 4,6 4,8 27,22 66,45 117,66 17,8 32,17 43,28 11,12 19,27 25,45 0,23 -2,42 -5,55 -3,14 -10,24 -22,30zm-836 -25c-9,3 -15,4 -19,4 -4,0 -8,-3 -13,-8 -4,-6 -9,-10 -12,-14 -14,-13 -21,-30 -21,-51 0,-13 4,-33 13,-60 8,-27 12,-47 12,-61 0,-10 0,-17 -2,-22 -2,-2 -5,-3 -9,-3l-36 40c-1,-1 -3,-2 -6,-4 -3,-2 -5,-4 -6,-6 8,-24 18,-44 29,-60 10,-16 23,-29 38,-37 3,2 6,5 9,11 13,22 19,47 19,75 0,32 -7,66 -22,101 -5,17 -8,30 -8,38 0,11 3,19 11,24 3,4 7,6 10,6 7,0 12,-9 17,-28 6,2 10,3 12,4 2,0 4,1 6,2 1,1 2,3 3,4 0,2 0,5 0,10 -9,18 -17,30 -25,35zm43 -306c8,10 16,26 24,48 8,22 12,44 12,66 0,34 -10,64 -30,89l-24 -12c0,-3 2,-8 4,-13 2,-6 4,-10 4,-13 9,-19 13,-36 13,-54 0,-28 -8,-55 -24,-78 -17,-24 -41,-53 -73,-88 3,-5 7,-10 13,-15 37,20 64,44 81,70zm-112 172c-1,4 -3,10 -5,16 -2,6 -4,10 -7,10 -27,-12 -50,-26 -68,-42 -17,-15 -31,-35 -40,-59 -5,-25 -7,-52 -7,-82 0,-79 21,-139 63,-178 3,9 4,18 4,27 0,12 -1,23 -4,34 -3,11 -8,28 -16,49 -8,22 -13,38 -15,47 -2,9 -3,20 -3,31 0,16 3,31 9,45 12,39 42,73 89,102zm25 -172c-14,8 -26,16 -34,23 -8,7 -14,13 -18,17 -4,4 -7,6 -9,6 -1,0 -6,-1 -14,-4 -1,-6 -2,-17 -2,-30 0,-24 5,-46 14,-66 10,-21 25,-45 44,-72 20,-26 33,-45 40,-56 -1,-6 -4,-9 -9,-9 -3,0 -7,2 -13,6 -6,4 -10,6 -12,6 -3,0 -5,-1 -7,-3l2 -28c27,-11 48,-17 63,-17 9,0 15,2 18,5 0,27 -7,51 -21,72 -14,21 -36,48 -67,80 -11,19 -16,33 -16,44 0,5 1,10 3,13l23 -6c7,4 11,7 12,8 2,1 3,5 3,11zm63 -61c-15,-3 -23,-10 -23,-19 24,-20 41,-45 51,-75 11,-29 16,-61 16,-96 0,-18 -2,-39 -6,-63 6,-1 11,-3 16,-5 4,-1 7,-2 10,-2 3,0 6,1 9,4 7,22 11,46 11,70 0,16 -1,33 -4,51 -12,62 -38,107 -80,135zm-94 -77c0,12 -3,17 -8,17 -3,0 -9,-4 -17,-13 -9,-20 -13,-41 -13,-65 0,-23 3,-48 11,-75 12,-29 32,-57 59,-85 27,-27 53,-47 76,-57 -4,12 -9,23 -16,30 -7,8 -19,20 -35,37 -17,16 -29,30 -34,41 -23,36 -33,75 -33,116 0,19 3,37 10,54zm66 -126c-17,-2 -27,-3 -31,-4 -4,-1 -6,-3 -6,-5 0,-1 1,-3 2,-6 0,-2 1,-7 2,-13 9,-16 21,-29 36,-40 16,-12 33,-21 54,-29 21,-7 40,-15 58,-21 18,-7 34,-14 47,-22 2,-3 4,-10 4,-19 -5,-3 -8,-4 -8,-4 -3,2 -8,3 -14,3 15,-11 30,-17 46,-17 8,0 15,1 22,4 2,3 3,5 3,5 -8,18 -21,34 -38,46 -17,13 -39,24 -66,35 -28,12 -48,21 -61,27 -13,6 -26,16 -37,27 2,9 14,13 36,13 0,8 -2,13 -5,16l-44 4zm126 -44l-2 0c0,-1 -1,-4 -4,-9 -2,-5 -3,-9 -3,-12 0,-3 2,-5 4,-6 22,-9 37,-17 46,-22 9,-5 17,-12 27,-21 5,-7 17,-18 34,-33 18,-16 31,-29 41,-40 9,-10 15,-22 17,-33 -5,0 -7,0 -9,0 -2,0 -4,0 -7,1 -2,0 -5,1 -8,1 -2,1 -5,1 -8,1 -39,10 -67,17 -83,22 -17,5 -34,14 -51,25 -18,12 -31,27 -38,46l-24 5c0,-21 8,-39 24,-53 32,-29 72,-48 120,-58 47,-10 101,-15 161,-15 -46,55 -87,99 -123,131 -35,33 -73,56 -114,70zm623 -163c0,-2 1,3 4,14 3,12 5,27 7,44 2,17 4,30 4,41 0,30 -7,47 -20,51 -9,-10 -19,-21 -30,-31 -10,-11 -18,-21 -23,-31 -6,-9 -9,-19 -9,-30l19 1c7,19 13,32 17,38 3,6 9,10 16,14 4,0 6,-3 9,-8 0,-48 -8,-88 -24,-121 2,-3 3,-5 4,-8 1,-2 2,-3 5,-3 7,4 14,14 21,29zm-67 44c-8,-2 -22,-6 -44,-11 -21,-5 -39,-11 -54,-18 -26,-15 -45,-27 -57,-36 -13,-9 -22,-20 -28,-33 44,-7 80,-10 107,-10 26,0 47,2 64,8 0,12 -1,18 -2,18 -25,-2 -59,-3 -102,-3 -3,2 -4,4 -4,9 2,2 9,9 22,20 31,20 76,31 136,33 2,6 2,10 2,13 0,7 -2,10 -7,10l-33 0zm-9 -40l-2 0c0,-8 1,-15 3,-20 2,-6 4,-12 7,-17 2,-5 6,-11 10,-17 5,-7 8,-11 10,-13 20,-12 42,-19 66,-19 10,0 18,2 26,4 2,3 4,5 4,8l-32 62 -8 -16 7 -24c-3,-4 -8,-7 -15,-8 -16,0 -27,5 -33,15 -10,8 -19,24 -29,47 -2,-1 -4,-1 -7,-1 -2,0 -5,-1 -7,-1z"/>
    <path class="fil8" d="M9830 12814l-27 15c-2,2 -6,5 -10,7 -4,2 -9,3 -15,5 -5,2 -10,3 -13,5 -20,6 -34,9 -41,9l-74 -3c-3,0 -8,1 -17,3 -9,2 -17,4 -26,6 -9,2 -15,4 -21,5 -8,2 -14,3 -18,4 -4,2 -9,3 -15,4 -6,1 -13,1 -20,1l-32 0c-33,0 -62,-5 -87,-16 -26,-11 -51,-29 -76,-51 -20,-18 -37,-40 -51,-65 -14,-26 -24,-51 -31,-76 -6,-25 -9,-49 -9,-71l3 -50c1,-40 11,-83 30,-127 18,-44 45,-81 78,-111 23,-21 47,-38 74,-51 27,-13 53,-23 79,-30 26,-7 46,-11 60,-11l91 0 71 -14 68 0c13,0 42,6 90,18 10,3 20,6 31,10 12,4 17,6 17,6l32 -11c9,-3 16,-5 21,-6 5,-1 12,-3 20,-5 8,-3 16,-6 25,-9 8,-4 18,-8 29,-14 11,-5 18,-8 20,-9l15 -2 -9 30c-19,78 -31,133 -35,163 -12,69 -18,127 -18,176l0 85c0,3 1,20 3,50 3,31 6,56 9,78 2,6 4,13 5,21 2,8 2,13 3,15 0,3 1,7 3,14 1,6 2,13 4,20l6 27 -24 0c-10,0 -22,-1 -36,-1 -13,-1 -27,-2 -41,-2 -14,-1 -26,-1 -35,-1 -16,0 -42,3 -79,9l-18 0 -9 -50zm-313 -103c15,15 31,27 50,36 19,10 35,15 47,15l19 0c9,-2 24,-9 45,-22 21,-12 41,-28 62,-47 20,-19 39,-39 54,-61 18,-26 34,-61 48,-104 14,-44 21,-71 21,-81l-1 -19c-2,-9 -12,-24 -29,-46 -18,-22 -35,-38 -53,-48 -36,-23 -69,-35 -96,-35l-21 0c-7,0 -19,5 -37,16 -17,11 -36,24 -55,41 -19,17 -34,34 -44,49 -37,53 -55,99 -55,138l0 21c0,17 3,41 10,72 6,30 18,55 35,75zm884 128l-17 0 -135 48 -41 11 11 -48c18,-74 27,-135 29,-184 1,-20 3,-54 6,-101 4,-47 5,-73 5,-77l0 -408c0,-10 -1,-19 -2,-29 -1,-9 -3,-17 -4,-24 -2,-6 -4,-15 -6,-26 -2,-11 -4,-21 -7,-31 -2,-9 -4,-17 -5,-24l-8 -38 38 5c24,1 55,1 91,1 18,0 36,-1 52,-3 17,-2 35,-6 55,-11l42 -10 -4 42c-1,4 -7,27 -15,70 -9,43 -15,84 -18,122 -2,33 -6,76 -12,130 -6,54 -8,83 -8,88l0 209 8 124 1 46 19 14c17,0 44,-4 80,-11 4,-1 14,-4 32,-9 17,-6 30,-9 40,-11l29 -7 -49 145 -22 13c-17,7 -41,10 -74,10 -26,0 -45,-2 -59,-6l-52 -20zm939 -25l-27 15c-2,2 -5,5 -10,7 -4,2 -9,3 -14,5 -6,2 -10,3 -14,5 -20,6 -34,9 -41,9l-74 -3c-2,0 -8,1 -17,3 -8,2 -17,4 -26,6 -8,2 -15,4 -20,5 -9,2 -15,3 -19,4 -4,2 -9,3 -15,4 -6,1 -13,1 -20,1l-32 0c-33,0 -62,-5 -87,-16 -26,-11 -51,-29 -76,-51 -20,-18 -37,-40 -51,-65 -14,-26 -24,-51 -30,-76 -6,-25 -9,-49 -9,-71l2 -50c1,-40 11,-83 30,-127 19,-44 45,-81 78,-111 23,-21 47,-38 74,-51 27,-13 54,-23 79,-30 26,-7 46,-11 60,-11l91 0 71 -14 68 0c13,0 43,6 90,18 10,3 21,6 32,10 11,4 17,6 17,6l31 -11c9,-3 16,-5 21,-6 5,-1 12,-3 20,-5 8,-3 16,-6 25,-9 8,-4 18,-8 29,-14 11,-5 18,-8 20,-9l15 -2 -8 30c-20,78 -32,133 -36,163 -12,69 -18,127 -18,176l0 85c0,3 1,20 3,50 3,31 6,56 10,78 1,6 3,13 4,21 2,8 3,13 3,15 0,3 1,7 3,14 1,6 3,13 4,20l6 27 -24 0c-10,0 -22,-1 -36,-1 -13,-1 -27,-2 -41,-2 -14,-1 -26,-1 -35,-1 -16,0 -42,3 -79,9l-18 0 -9 -50zm-312 -103c14,15 30,27 49,36 19,10 35,15 48,15l18 0c9,-2 24,-9 45,-22 21,-12 42,-28 62,-47 21,-19 39,-39 55,-61 17,-26 33,-61 47,-104 14,-44 21,-71 21,-81l-1 -19c-2,-9 -11,-24 -29,-46 -17,-22 -35,-38 -53,-48 -36,-23 -69,-35 -96,-35l-21 0c-7,0 -19,5 -36,16 -18,11 -36,24 -55,41 -20,17 -35,34 -45,49 -37,53 -55,99 -55,138l0 21c0,17 3,41 10,72 6,30 18,55 36,75zm1016 -463c0,2 -1,8 -3,18 -1,9 -3,19 -5,30 -5,48 -8,81 -8,96l0 93c0,10 3,68 9,172 8,97 13,149 15,155l20 55 -51 -3c-12,-2 -27,-3 -47,-3 -19,-1 -36,-1 -50,-1 -12,0 -26,1 -41,2 -16,2 -34,3 -54,5l-37 3 9 -26c6,-17 12,-43 19,-79 8,-41 12,-82 12,-123l0 -191c0,-25 -3,-47 -8,-66 -6,-18 -15,-37 -28,-58 -4,-7 -10,-15 -17,-23 -7,-9 -13,-15 -18,-20 -5,-4 -11,-10 -18,-16 -8,-6 -12,-10 -13,-11l-29 -28 165 0c22,0 50,-3 82,-10 18,-2 39,-7 62,-13l38 -13 -4 55zm-97 -93c-8,-1 -16,-3 -23,-4 -7,-1 -17,-3 -32,-7 -14,-3 -26,-6 -37,-9 -25,-7 -53,-16 -87,-29 5,-2 13,-7 23,-17 11,-10 25,-22 41,-37 17,-15 31,-27 42,-35 14,-10 30,-21 48,-31 17,-11 34,-20 52,-29 18,-9 28,-14 30,-15l117 63 -174 150zm1052 61c-1,2 -9,8 -24,19 -15,12 -26,20 -31,25 -6,4 -14,11 -22,20 -14,13 -32,32 -53,57l-16 21 -36 -20c-4,-2 -17,-7 -38,-15 -21,-8 -43,-16 -65,-23 -44,-15 -72,-23 -82,-23l-24 0c-12,1 -34,10 -66,28 -31,17 -57,37 -78,59 -22,25 -40,55 -54,92 -14,36 -21,65 -21,87l0 28c1,29 5,55 13,76 8,21 22,43 42,65 19,20 46,35 83,46 37,10 62,15 75,15l17 0c18,0 45,-7 81,-21 37,-15 81,-34 133,-59 16,-8 32,-16 47,-25 15,-10 36,-22 60,-37 25,-16 42,-26 49,-30l32 -14 -12 28c-4,7 -12,21 -24,43 -11,21 -24,45 -36,71 -5,8 -11,22 -19,41 -7,19 -14,35 -21,48l-13 19 -47 0c-13,0 -22,0 -28,1 -6,0 -13,0 -21,1 -8,0 -19,1 -33,2 -8,0 -30,2 -65,5 -36,2 -53,4 -53,4l-35 0c-6,0 -10,0 -14,1 -3,1 -7,1 -10,1 -3,1 -8,1 -14,2 -5,1 -10,2 -14,2 -7,1 -16,2 -28,4 -12,2 -21,2 -29,2l-52 0c-36,0 -72,-8 -111,-24 -38,-17 -71,-41 -98,-73 -22,-25 -38,-54 -48,-87 -11,-33 -16,-62 -16,-87l0 -29c1,-106 46,-196 135,-268 21,-18 47,-33 79,-46 31,-13 61,-23 91,-30 29,-7 47,-11 55,-11l28 0c4,0 13,-1 26,-4 14,-3 32,-7 53,-11 21,-5 39,-8 53,-10 22,-3 49,-6 83,-8 34,-1 56,-2 68,-2l30 0c17,0 36,1 56,3 15,2 35,6 60,12l27 8 -25 21zm547 -9c21,-5 42,-9 62,-12 19,-3 32,-4 37,-4l34 0c15,0 34,3 58,10 24,6 49,16 74,28 25,13 46,29 64,48 16,18 29,40 40,66 11,26 19,51 25,75 5,25 8,41 8,50l0 72c0,41 -9,76 -26,106 -18,29 -45,62 -82,97 -27,25 -65,46 -114,64 -48,18 -79,27 -91,27l-30 0 -33 9c-57,14 -94,23 -111,27 -17,4 -39,5 -64,5 -41,0 -81,-9 -119,-28 -32,-16 -59,-37 -83,-65 -25,-27 -43,-57 -57,-88 -13,-31 -20,-58 -20,-82l0 -96c0,-22 10,-52 29,-91 19,-38 42,-70 69,-97 20,-20 46,-37 77,-52 31,-15 61,-27 89,-34 28,-8 49,-12 61,-12l33 0c3,0 13,-3 31,-10 19,-7 32,-11 39,-13zm-177 485c18,19 40,36 68,51 28,15 49,22 64,22l53 0c17,0 36,-8 58,-23 22,-16 43,-35 61,-57 19,-22 34,-46 45,-72 10,-27 16,-51 16,-75l0 -21c0,-35 -6,-65 -17,-90 -11,-26 -29,-50 -55,-73 -17,-16 -41,-29 -72,-39 -30,-10 -51,-15 -63,-15l-14 0c-18,1 -42,10 -71,26 -29,16 -52,36 -70,60 -37,47 -55,99 -55,157l0 25c0,17 5,38 14,62 10,23 22,44 38,62z"/>
   </g>
   <path class="fil9" d="M7636 11921c14,29 28,44 28,82 0,14 -2,26 -6,37 -6,13 -10,24 -24,25 -24,-10 -61,-9 -86,-74 -20,-52 -11,-90 1,-130 9,1 19,5 25,8 4,3 7,5 11,8 19,12 13,6 32,25 6,5 14,16 19,19z"/>
   <path class="fil9" d="M7881 12458c-16,14 -50,19 -71,19 -58,1 -112,-49 -134,-102 8,2 0,0 8,3 39,14 77,-11 117,5 26,11 65,40 80,75z"/>
   <path class="fil9" d="M7835 12113c4,23 54,82 5,157 -5,9 -23,31 -34,36l-12 -15c-17,-40 -35,-70 -20,-112 18,-49 39,-54 37,-94 9,7 12,16 21,25l3 3z"/>
   <path class="fil9" d="M7779 12314l2 10c-39,13 -80,31 -129,3 -16,-10 -29,-21 -43,-37 -18,-22 -31,-46 -36,-52 10,2 15,7 29,8 40,4 85,-24 140,27 10,9 30,36 37,41z"/>
   <path class="fil9" d="M7748 11958c1,9 13,28 18,39 6,15 8,33 15,47 -5,14 4,38 -15,73 -9,16 -30,41 -50,52 -15,-43 -42,-78 -24,-125 15,-40 45,-60 44,-98l12 12z"/>
   <path class="fil9" d="M7611 12101c29,7 66,44 82,83 -22,6 -37,12 -61,14 -33,-5 -52,-2 -85,-32 -18,-16 -47,-53 -55,-80 25,21 86,-1 119,15z"/>
   <path class="fil9" d="M7907 12442c-19,-15 -45,-80 -35,-119 1,-8 4,-15 8,-22 3,49 13,96 28,141l-1 0zm-17 -159c6,-11 12,-22 17,-34 5,-13 2,-17 5,-29 14,17 26,35 34,52 1,33 5,65 12,94 -6,25 -20,47 -40,67 -7,-21 -13,-43 -17,-65 -6,-29 -10,-57 -11,-85z"/>
   <path class="fil9" d="M7435 11780c9,48 -1,50 21,127 6,22 13,42 21,62 8,20 20,36 28,54l-21 13c-25,-52 -32,-51 -51,-119 -11,-36 -25,-102 -21,-137l23 0z"/>
   <path class="fil9" d="M7700 11933l-9 5c-2,-3 0,-2 -3,-5 -7,-6 -1,-1 -5,-4 -3,-15 -18,-37 -25,-54 -25,-63 -37,-126 -40,-192l24 0c7,70 13,119 41,188 9,21 18,34 27,52l-10 10z"/>
   <path class="fil9" d="M7525 11685c2,25 2,46 7,73 4,18 17,60 17,74l-23 6c-14,-57 -24,-96 -26,-153l25 0z"/>
   <path class="fil10 str1" d="M7381 12242c24,21 42,30 57,64 6,13 8,25 8,38 0,13 1,25 -12,32 -25,0 -59,14 -107,-36 -39,-40 -46,-78 -50,-120 8,-2 19,-3 27,-2 4,1 8,2 12,3 22,4 14,1 40,10 7,3 19,11 25,11z"/>
   <path class="fil10 str1" d="M7814 12642c-9,20 -38,38 -58,46 -54,23 -122,-2 -164,-43 9,-1 1,0 9,0 41,-2 67,-40 110,-41 29,0 75,13 103,38z"/>
   <path class="fil10 str1" d="M7638 12343c6,9 27,23 44,45 4,7 8,15 13,22 10,20 15,44 9,75 -2,11 -10,38 -19,46l-15 -9c-32,-30 -61,-51 -63,-96 -2,-52 15,-65 -2,-100 11,2 18,10 29,15l4 2z"/>
   <path class="fil10 str1" d="M7664 12549l6 9c-31,27 -62,59 -118,52 -18,-3 -35,-8 -53,-17 -26,-14 -47,-31 -54,-34 10,-2 17,0 30,-4 38,-12 69,-55 140,-29 12,4 40,22 49,23z"/>
   <path class="fil10 str1" d="M7498 12233c5,8 23,21 32,29 11,11 20,27 32,38 1,14 18,33 14,72 -2,18 -12,49 -26,67 -31,-33 -68,-55 -70,-105 -2,-43 18,-72 3,-107l15 6z"/>
   <path class="fil10 str1" d="M8105 12742c-5,0 -9,0 -14,0 -55,-1 -212,-52 -243,-82l20 -30c12,9 42,23 56,29 20,8 37,15 57,21 42,14 56,16 78,19 15,16 30,30 46,43z"/>
   <path class="fil9 str1" d="M7942 12522c-26,-21 -47,-42 -54,-55l22 -19c9,26 20,50 32,74z"/>
   <path class="fil10 str1" d="M7427 12417c29,-4 78,16 108,45 -18,15 -30,26 -51,37 -32,8 -49,18 -91,3 -23,-8 -63,-30 -82,-52 31,10 79,-34 116,-33z"/>
   <path class="fil10 str1" d="M7832 12618c-23,-6 -73,-57 -79,-97 -3,-19 1,-37 3,-57 17,9 35,14 54,13 5,0 12,0 18,-1 28,43 31,93 4,142z"/>
   <path class="fil10 str1" d="M7141 12189c26,41 18,47 68,110 14,18 28,33 43,49 15,15 33,25 47,39l-15 20c-42,-38 -48,-34 -92,-90 -24,-29 -62,-85 -73,-119l22 -9z"/>
   <path class="fil10 str1" d="M7445 12228l-7 8c-3,-2 -1,-1 -5,-3 -9,-3 -1,0 -6,-1 -8,-13 -31,-28 -44,-41 -47,-49 -83,-102 -112,-162l23 -9c33,62 58,105 110,158 16,15 30,24 46,37l-5 13z"/>
   <path class="fil10 str1" d="M7187 12068c11,22 20,41 35,64 10,15 38,49 44,62l-19 14c-35,-47 -59,-79 -83,-131l23 -9z"/>
   <path class="fil11 str1" d="M8466 12850c32,-4 81,-6 148,-7 68,0 125,-3 173,-9 48,-5 93,-17 138,-35 44,-18 82,-46 113,-83 47,-52 70,-118 70,-200 0,-32 -3,-60 -10,-86 -4,-11 -8,-33 -14,-66 -5,-34 -8,-66 -8,-98 0,-28 3,-51 8,-70 -27,12 -50,21 -70,27 -21,6 -42,9 -64,9 -21,0 -47,-4 -76,-12 -32,-6 -67,-9 -106,-9 -121,0 -210,31 -268,92 -15,22 -22,44 -22,66 0,24 8,45 25,64 17,18 41,29 71,33 55,0 98,-16 129,-48 4,-5 8,-12 12,-23 4,-11 9,-18 13,-21 34,35 51,91 51,168 -6,53 -26,91 -61,114 -13,7 -30,11 -50,11 -25,0 -58,-9 -100,-28 -63,-35 -116,-81 -159,-138 -43,-57 -72,-121 -88,-192 -7,-29 -10,-58 -10,-89 0,-58 11,-115 32,-170 21,-55 49,-102 85,-141 8,-8 20,-18 34,-31 14,-14 28,-25 41,-34 13,-9 27,-16 43,-21 15,-5 33,-7 52,-7 39,10 74,24 106,41 32,18 63,37 91,59 28,22 60,50 94,82 35,33 62,59 83,79 0,0 2,-1 6,-5 11,-176 35,-344 74,-504l-560 48c-54,3 -99,9 -133,18 -100,23 -187,64 -259,122 -73,58 -129,129 -168,214 -39,81 -59,168 -59,262 0,105 25,202 74,289 32,62 66,113 102,153 35,39 74,70 114,92 41,23 84,40 129,51 45,11 103,22 174,33zm18 -10c-51,-1 -103,-9 -156,-25 -52,-15 -101,-36 -147,-62 -49,-31 -93,-67 -131,-108 -39,-40 -71,-85 -97,-135 -26,-50 -45,-104 -57,-161 -8,-38 -11,-74 -11,-110 0,-49 6,-99 18,-148 13,-50 31,-97 54,-141 23,-44 51,-84 83,-120 44,-53 99,-95 162,-125 64,-31 131,-52 202,-64 71,-13 143,-21 218,-26 74,-4 154,-9 241,-14l166 -11c-19,74 -34,153 -46,237 -11,84 -18,158 -19,222 -65,-66 -122,-118 -173,-157 -51,-40 -107,-69 -169,-89 -13,-4 -26,-6 -36,-6 -22,0 -43,6 -65,18 -22,11 -42,25 -60,43 -50,42 -89,95 -117,160 -29,64 -44,132 -44,202 0,39 4,76 13,111 15,54 37,104 67,150 30,46 66,85 108,118 42,34 90,61 142,81 11,2 19,3 26,3 34,0 63,-9 84,-26 21,-16 35,-36 42,-61 7,-24 11,-55 13,-93 -16,-92 -52,-155 -108,-187 -11,-7 -23,-10 -38,-10 -22,0 -43,7 -62,20 -1,2 -3,6 -8,12 -4,7 -8,12 -10,17 -2,4 -4,8 -4,13 0,7 4,14 12,22 7,5 17,8 28,8 12,0 20,-3 25,-8 0,-5 0,-8 -1,-8 -9,0 -16,2 -23,5 -14,-5 -21,-13 -21,-23 8,-21 21,-34 37,-39 4,-2 10,-3 20,-3 22,0 41,8 57,23 3,6 5,14 5,23 0,18 -6,35 -17,50 -23,22 -54,34 -94,34 -21,0 -40,-3 -56,-10 -30,-19 -46,-43 -46,-70 0,-21 8,-41 25,-62 17,-20 36,-36 58,-47 65,-27 131,-40 198,-40 56,0 107,10 152,29 18,2 30,3 36,3 30,0 61,-9 93,-26 -2,18 -2,31 -2,38 0,21 2,46 8,75 5,29 8,49 10,61 19,49 29,96 29,142 -13,87 -51,156 -113,208 -33,23 -69,40 -107,50 -39,11 -76,17 -111,20 -35,3 -83,6 -145,8 -61,2 -107,5 -138,9zm-15 -48c19,2 48,3 86,3 46,0 94,-3 143,-9 49,-6 99,-15 148,-28 27,-10 52,-21 75,-33 23,-11 44,-26 63,-44 20,-18 34,-41 42,-69 7,-22 11,-48 11,-77 0,-54 -12,-103 -35,-148 -4,-6 -6,-18 -6,-34 0,-20 4,-40 13,-59 -12,8 -23,12 -34,12 -9,0 -26,-5 -50,-15 -25,-8 -50,-16 -73,-23 -23,-7 -47,-12 -73,-16 -26,-4 -53,-6 -80,-6 -5,1 -9,2 -11,2 -3,1 -5,1 -8,1 -3,0 -6,0 -8,1 45,26 84,59 119,98 35,40 55,83 60,132 1,16 2,27 2,34 0,41 -9,81 -27,118 -18,38 -43,70 -76,97 -33,12 -54,20 -64,23 -10,3 -21,5 -33,5 -19,0 -40,-7 -65,-19 -24,-13 -64,-39 -119,-77 -46,-36 -86,-77 -120,-123 -34,-47 -60,-97 -78,-152 -19,-55 -28,-112 -28,-171 0,-17 0,-30 1,-39 7,-88 15,-150 25,-186 10,-36 26,-61 47,-76 21,-15 50,-35 85,-59 35,-24 73,-62 115,-115 10,-16 30,-24 61,-24 13,0 27,2 42,6 16,4 30,9 42,16 26,13 51,29 76,51 25,21 54,46 87,75 32,30 61,52 85,67 5,-20 9,-52 13,-95 5,-43 9,-80 15,-109 5,-30 13,-58 26,-84 -47,4 -87,7 -119,10 -32,2 -70,5 -114,8 -43,3 -78,5 -104,7 -25,1 -63,3 -112,5 -90,4 -174,24 -252,60 -78,36 -147,84 -205,146 -20,26 -36,53 -48,81 -11,27 -28,68 -48,121 -13,49 -20,100 -20,151 0,44 5,84 14,122 29,141 108,254 236,341 35,26 78,47 127,63 51,17 101,28 151,34zm31 -15c-28,0 -58,-2 -87,-7 -30,-6 -57,-13 -83,-22 -26,-9 -53,-20 -82,-34 -4,-3 -10,-9 -19,-17 -8,-7 -15,-15 -20,-22 -5,-7 -7,-14 -7,-22l27 0c18,21 38,37 59,49 22,12 44,20 68,26 25,5 52,9 82,11 5,-3 9,-4 14,-4 3,0 7,0 12,1 5,1 8,2 11,2 6,0 10,-2 14,-4l0 -9c-14,-5 -27,-13 -41,-24 -14,-11 -29,-22 -44,-32 -14,-11 -29,-20 -45,-26 -15,-7 -32,-10 -51,-10 -9,-8 -13,-17 -13,-27 0,-1 1,-4 3,-7 41,0 74,8 99,24 17,13 42,32 74,56 32,25 54,42 67,52 12,10 30,23 53,40l-91 6zm480 -124c-4,7 -19,19 -43,34 -25,16 -51,30 -80,43 -29,12 -54,19 -75,19 -5,0 -11,-1 -18,-3 18,-5 32,-14 43,-27 11,-13 22,-32 33,-57 11,-25 21,-44 28,-57 7,-13 17,-24 29,-33 4,3 8,6 11,8 3,2 5,5 5,9 -1,6 -3,10 -6,12 -3,3 -8,7 -16,14 0,1 -3,6 -8,17 -5,10 -8,19 -10,26 -3,7 -3,12 -3,16 0,4 1,9 4,15 2,3 5,5 9,5 7,-3 18,-9 34,-20 22,-19 33,-40 33,-62 -5,-9 -17,-24 -34,-44 -18,-20 -30,-35 -36,-47 -1,-10 -2,-19 -2,-27 1,-33 9,-58 21,-72 13,0 22,2 27,8 0,8 -3,19 -8,33 -5,13 -9,24 -10,31 5,13 14,27 29,41 15,15 29,28 43,41 5,10 8,22 8,34 0,11 -3,25 -8,43zm-634 54c0,0 -2,-1 -8,-3 -5,-2 -9,-3 -14,-3 -35,-18 -62,-51 -80,-99 -6,-5 -11,-14 -16,-26 -4,-13 -10,-21 -16,-24 -3,1 -7,4 -9,10 -3,5 -5,10 -6,14 -1,-1 -4,-1 -7,-1 -3,0 -6,-1 -8,-1 -2,-1 -4,-2 -4,-3 -2,-8 -3,-15 -3,-21 0,-22 7,-40 22,-52 21,10 39,29 53,55 13,26 27,51 40,74 14,24 31,40 52,48 6,-1 9,-4 9,-9l0 -9 23 9c1,3 6,9 13,18 7,9 10,16 10,23l-51 0zm-130 -73c-50,-5 -95,-24 -136,-58 -17,-16 -33,-40 -46,-72 -13,-31 -19,-58 -19,-81 19,0 31,2 34,7 3,12 5,22 7,31 1,9 3,17 5,24 2,7 6,15 11,23 16,27 37,48 65,64 28,16 58,26 89,30 0,2 2,5 5,11 2,5 3,10 3,12 0,4 -2,7 -5,9l-13 0zm117 -58l-16 0c-27,-33 -53,-60 -78,-81 -25,-21 -57,-41 -96,-59 2,-3 3,-7 5,-12 2,-6 3,-9 4,-10 14,4 26,9 38,15 12,6 25,14 39,25 14,10 27,19 37,26 21,20 38,37 50,51 11,14 17,29 17,45zm652 -30c0,0 0,1 -1,1 0,0 0,0 -1,1 -10,-3 -15,-9 -15,-17 8,-9 12,-29 12,-60 -9,-22 -22,-39 -41,-51 -18,-11 -47,-25 -84,-40 -11,-7 -24,-17 -38,-30 -15,-14 -31,-30 -49,-49 -17,-19 -29,-32 -35,-38 7,-1 17,-1 30,-1 29,0 59,5 87,15 29,10 55,24 77,42 18,22 27,40 27,54l-32 -13c-3,-2 -8,-7 -16,-15 -8,-8 -13,-13 -17,-16 -7,-5 -13,-9 -20,-14 -7,-4 -13,-8 -20,-11 -7,-3 -13,-5 -17,-5 -5,0 -9,2 -13,4 0,3 1,7 4,11 2,3 4,6 4,8 26,22 65,45 117,66 17,8 31,17 42,28 11,12 20,27 26,45 0,23 -2,42 -5,55 -3,14 -11,24 -22,30zm-837 -25c-8,2 -15,4 -18,4 -4,0 -8,-3 -13,-8 -5,-6 -9,-10 -13,-14 -13,-13 -20,-30 -20,-51 0,-13 4,-33 12,-60 9,-27 13,-47 13,-61 0,-10 -1,-17 -2,-22 -2,-2 -5,-3 -10,-3l-35 40c-1,-1 -3,-2 -6,-4 -4,-2 -6,-4 -7,-6 9,-24 19,-44 29,-60 11,-16 24,-29 39,-37 3,2 6,5 8,11 13,22 20,47 20,75 0,32 -8,66 -22,101 -6,17 -9,30 -9,38 0,11 4,19 11,24 4,4 8,6 11,6 7,0 12,-9 16,-28 6,2 11,3 13,4 2,0 4,1 5,2 2,1 3,3 3,4 1,2 1,5 1,9 -9,19 -18,31 -26,36zm44 -306c8,10 16,26 23,48 9,22 12,44 12,66 0,34 -9,64 -29,89l-24 -12c0,-3 1,-8 4,-13 2,-6 3,-10 4,-13 8,-19 12,-36 12,-54 0,-29 -8,-55 -24,-78 -16,-24 -40,-53 -73,-88 3,-5 8,-10 13,-15 37,20 64,44 82,70zm-112 172c-1,4 -3,10 -5,16 -2,6 -4,10 -7,10 -28,-12 -51,-26 -68,-42 -18,-15 -31,-35 -40,-59 -5,-25 -8,-53 -8,-82 0,-79 22,-139 64,-178 2,9 4,18 4,27 0,12 -2,23 -5,34 -3,11 -8,28 -16,49 -7,22 -12,38 -14,47 -2,9 -3,20 -3,31 0,16 3,31 8,45 12,39 42,73 90,102zm24 -172c-14,8 -25,16 -33,23 -9,7 -15,13 -18,17 -4,4 -7,6 -9,6 -2,0 -6,-1 -14,-4 -1,-6 -2,-17 -2,-30 0,-24 4,-46 14,-67 9,-21 24,-44 44,-71 19,-26 33,-45 39,-56 -1,-6 -4,-9 -8,-9 -3,0 -8,2 -13,6 -6,4 -10,6 -13,6 -2,0 -4,-1 -6,-3l1 -28c27,-11 48,-17 64,-17 8,0 14,2 18,5 0,27 -7,51 -21,72 -14,21 -36,48 -67,80 -11,18 -17,33 -17,44 0,5 1,10 4,13l23 -6c7,4 11,7 12,8 2,1 2,5 2,11zm64 -61c-16,-3 -23,-10 -23,-19 24,-20 41,-45 51,-75 10,-29 15,-61 15,-96 0,-18 -2,-39 -5,-63 5,-2 11,-3 15,-5 5,-1 8,-2 10,-2 4,0 7,1 10,4 7,22 11,46 11,70 0,16 -2,33 -4,51 -12,62 -39,107 -80,135zm-95 -77c0,11 -2,17 -8,17 -2,0 -8,-4 -17,-13 -9,-20 -13,-41 -13,-65 0,-23 4,-48 11,-75 13,-29 32,-57 60,-85 27,-27 52,-47 76,-57 -4,12 -10,23 -16,30 -7,8 -19,20 -36,36 -17,17 -28,31 -34,42 -22,36 -33,75 -33,116 0,19 3,37 10,54zm67 -126c-17,-2 -27,-4 -31,-4 -4,-1 -6,-3 -6,-5 0,-1 0,-3 1,-6 1,-2 2,-7 3,-13 8,-16 20,-29 36,-41 15,-11 33,-20 54,-28 20,-7 39,-15 58,-21 18,-7 33,-14 46,-22 3,-3 4,-10 4,-19 -5,-3 -7,-4 -7,-4 -4,2 -8,3 -15,3 16,-11 31,-17 47,-17 8,0 15,1 21,4 3,3 4,5 4,5 -9,18 -22,34 -39,46 -17,12 -39,24 -66,35 -27,12 -47,21 -61,27 -13,6 -25,15 -37,27 2,9 14,13 36,13 0,8 -1,13 -5,16l-43 4zm126 -44l-3 0c0,-1 -1,-4 -3,-9 -2,-5 -3,-9 -3,-12 0,-3 1,-5 4,-6 21,-9 36,-17 45,-22 9,-5 18,-12 27,-21 6,-7 17,-18 35,-33 17,-16 31,-29 40,-40 9,-10 15,-22 17,-33 -4,0 -7,0 -9,0 -2,0 -4,0 -6,1 -3,0 -5,1 -8,1 -3,1 -6,1 -9,1 -39,10 -67,17 -83,22 -16,5 -33,13 -51,25 -17,12 -30,27 -38,46l-23 4c0,-21 8,-38 23,-52 32,-29 73,-48 120,-58 48,-10 102,-15 162,-15 -47,55 -88,99 -123,131 -35,33 -73,56 -114,70zm623 -163c0,-2 1,3 4,14 2,12 4,27 7,44 2,17 3,30 3,41 0,29 -6,47 -19,51 -10,-10 -20,-21 -30,-31 -10,-11 -18,-21 -24,-31 -6,-9 -8,-19 -8,-30l18 1c8,19 13,31 17,38 4,6 9,10 17,14 3,0 6,-3 9,-8 0,-48 -8,-88 -25,-121 2,-3 3,-5 4,-8 1,-2 3,-4 5,-4 8,5 15,14 22,30zm-67 44c-8,-2 -23,-6 -44,-11 -22,-5 -40,-11 -55,-18 -25,-15 -44,-27 -57,-36 -12,-9 -21,-20 -28,-33 45,-7 81,-10 107,-10 26,0 48,2 65,8 0,12 -1,18 -3,18 -24,-2 -58,-3 -102,-3 -2,1 -3,4 -3,8 2,3 9,10 21,21 32,20 77,31 137,33 1,6 2,10 2,13 0,7 -2,10 -7,10l-33 0zm-10 -40l-1 0c0,-8 1,-15 3,-20 1,-6 3,-12 6,-17 3,-5 6,-11 11,-17 4,-7 8,-11 9,-13 20,-12 42,-19 67,-19 9,0 18,1 25,4 3,3 4,5 4,7l-32 63 -7 -16 6 -24c-3,-4 -7,-7 -14,-8 -16,0 -27,5 -33,15 -10,8 -20,24 -29,47 -2,-1 -5,-1 -7,-1 -3,0 -5,-1 -8,-1z"/>
   <g style="clip-path:url(#id0)">
    <image id="besp.gif" transform="matrix(0.124669 -0.0565221 0.0565221 0.124669 7681.89 12306.5)" x="0" y="0" width="11430" height="7620" xlink:href="LogoPan_Images\LogoPan_ImgID1.png"/>
   </g>
   <g style="clip-path:url(#id1)">
    <image id="pt.png" transform="matrix(0.254207 -0.111832 0.111832 0.254207 4834.1 9485.82)" x="0" y="0" width="20461" height="13653" xlink:href="LogoPan_Images\LogoPan_ImgID2.png"/>
   </g>
  </g>
  <g id="_2308670254240">
   <g>
    <g>
     <path class="fil8" d="M7207 14136c-10,12 -23,29 -41,50 -13,13 -29,27 -47,39 -34,24 -84,47 -151,69 -45,16 -85,26 -119,31 -4,0 -24,0 -60,0 -64,0 -106,-3 -128,-8 -121,-31 -217,-84 -288,-157 -67,-70 -100,-149 -100,-237 0,-15 4,-49 14,-100 11,-56 47,-114 109,-172 18,-17 43,-33 75,-50 54,-28 115,-52 184,-70 27,-8 45,-12 52,-12 11,0 31,-1 59,-2 24,-2 44,-2 58,-2 22,0 41,3 58,8 59,17 104,32 134,45 59,26 109,59 150,98 36,36 63,72 80,109 14,31 26,74 36,129l1 9c1,3 1,5 1,6 0,36 -8,76 -24,121 -16,44 -34,77 -53,96zm-413 -550c-15,0 -23,0 -26,0 -11,2 -26,5 -44,10 -36,12 -73,36 -111,72 -37,37 -63,70 -75,100 -6,13 -14,40 -23,79 -11,47 -17,83 -17,106 0,52 14,105 42,158 35,64 81,105 139,122 43,13 69,19 79,19 2,0 4,0 6,0 2,0 3,0 4,0 28,0 49,-2 65,-8 33,-11 66,-30 98,-58 70,-61 110,-143 120,-245 1,-3 3,-11 5,-23 2,-12 3,-21 3,-27 0,-66 -21,-130 -63,-191 -51,-76 -118,-114 -202,-114zm1645 745c-5,1 -11,1 -19,1 -3,0 -6,0 -9,0 -3,-1 -4,-1 -5,-1 -34,0 -69,-7 -105,-22 -44,-18 -68,-42 -73,-72 -1,-3 -4,-9 -8,-18 -15,-27 -36,-65 -61,-115 -8,-23 -21,-56 -40,-100 -63,23 -140,35 -232,35 -37,0 -96,-8 -176,-24 -9,20 -14,49 -14,89 0,29 5,52 13,70 4,9 11,21 20,36 10,10 24,20 43,29 1,1 7,2 17,2 11,1 19,1 26,2 31,4 63,7 95,10 41,5 72,13 92,25 4,14 0,27 -12,38 -11,11 -23,16 -36,16 7,0 -18,-3 -73,-10 -82,-11 -141,-16 -177,-15l-186 4c-51,6 -91,10 -119,10 -42,0 -63,-9 -63,-27 0,-13 7,-22 20,-29 18,-8 36,-17 54,-27 26,-15 46,-39 61,-71 9,-30 19,-60 29,-91 1,-4 3,-25 6,-64 5,-61 7,-108 7,-142 0,-54 -3,-100 -9,-138 -5,-13 -12,-29 -20,-50 -10,-23 -19,-41 -27,-53 -9,-12 -23,-23 -42,-32 -23,-10 -38,-18 -45,-24 -2,-3 -4,-9 -4,-18 0,-19 9,-28 26,-28 2,0 8,1 18,4 19,6 58,10 117,12 53,4 93,5 120,3l312 -19c53,-3 117,1 192,13 31,5 64,19 100,42 40,25 67,53 79,85 3,7 5,25 5,53 0,27 -4,50 -10,68 -7,19 -25,43 -54,73 -12,13 -18,24 -18,34 0,6 8,20 23,39 19,24 30,38 32,42 16,33 34,81 55,145 0,10 0,24 1,42 1,18 6,43 14,77 3,5 13,14 31,25 0,1 4,1 12,1 44,-1 65,7 65,23 0,9 -7,18 -22,28 -12,9 -21,13 -26,14zm-336 -621c-14,-34 -44,-61 -90,-81 -40,-17 -81,-26 -121,-26 -25,0 -45,3 -62,7 -16,5 -35,12 -56,20 -22,15 -36,34 -42,55 -6,21 -12,42 -17,62l-1 5c-2,3 -3,6 -3,8l0 126c69,-30 150,-46 244,-46 51,0 89,3 113,7 5,-7 10,-12 15,-14 19,-31 29,-56 29,-77 0,-15 -3,-30 -9,-46zm-166 211c-25,0 -54,4 -88,11 -37,8 -62,16 -73,26l101 0c11,0 44,-12 99,-35 -32,-1 -45,-2 -39,-2zm1613 -288c-3,1 -25,9 -67,21 -41,13 -63,19 -66,19 -107,17 -181,23 -225,20 -27,-3 -76,-16 -148,-39 -48,-15 -76,-24 -84,-26 -31,-9 -60,-14 -86,-16 -39,-3 -70,-3 -96,2 -41,7 -72,14 -93,23 -26,12 -53,31 -80,58 -5,4 -13,7 -27,7 -5,0 -16,-6 -33,-16 0,-16 0,-25 0,-27 7,-17 21,-34 43,-54 22,-19 43,-33 63,-40 43,-18 76,-29 100,-34 43,-10 96,-18 161,-22 9,-1 24,-1 43,-1 7,0 22,0 45,1 37,3 66,6 88,9 22,6 55,14 98,23 20,3 52,8 94,14 75,7 118,10 129,10 19,0 33,0 41,-1 25,-3 51,-6 76,-12 18,-2 35,-6 51,-11 3,-1 12,-5 26,-12 14,-6 23,-10 26,-10 11,0 20,5 28,16 5,5 9,15 13,30 -21,11 -61,34 -120,68zm-11 685c-5,5 -12,8 -19,9 -8,2 -15,-1 -22,-7 -9,-11 -15,-16 -16,-17 -16,-8 -26,-13 -32,-15 -11,-4 -22,-5 -33,-5 0,0 -18,3 -55,10 -20,5 -49,12 -87,22 -12,1 -28,4 -50,10 -26,1 -48,2 -66,2 -36,0 -64,0 -84,-1 -65,-3 -128,-14 -187,-31 -101,-29 -185,-72 -251,-129 -74,-63 -111,-133 -111,-209 0,-74 37,-147 111,-218 75,-71 154,-106 239,-106 10,0 18,1 27,2 20,3 41,5 61,8 25,5 43,13 56,25 4,3 7,10 7,21 0,8 -8,14 -23,18 -3,0 -11,-1 -25,-3 -13,-2 -21,-2 -23,-2 0,0 -2,0 -4,0 -2,0 -4,0 -6,0 -17,0 -35,5 -53,15 -69,38 -109,103 -121,196 -3,23 -4,31 -4,24 0,48 5,84 16,109 10,21 30,48 60,80 17,19 45,45 84,79 16,9 29,16 41,20 38,15 71,25 97,30 34,6 61,10 80,10 21,0 44,-3 69,-8 26,-5 63,-15 112,-29 16,-7 29,-16 37,-27 21,-26 38,-53 49,-79 15,-36 23,-64 23,-85l0 -109c4,4 9,5 15,5 17,0 33,-1 48,-1 6,14 11,51 16,112 0,24 1,56 3,95 6,34 15,88 27,161 1,6 -1,12 -6,18zm1161 -645l-4 6c-3,3 -4,6 -5,7 -27,67 -41,166 -41,296 0,57 3,99 8,127 8,42 25,81 51,116 6,9 15,16 27,22 12,6 25,12 36,18 16,7 23,17 23,28 0,20 -11,30 -33,28l-244 -15 -301 31c-77,0 -137,-5 -180,-15 -10,-2 -30,-10 -58,-24 -13,-5 -32,-14 -57,-26 -45,-31 -85,-65 -118,-100 -11,-12 -23,-30 -37,-54 -13,-18 -28,-47 -46,-88 -13,-44 -19,-84 -19,-119 0,-17 3,-39 8,-69 5,-29 9,-46 14,-51 1,-1 4,-10 9,-27 4,-20 15,-44 33,-70 10,-12 26,-30 47,-54 11,-10 27,-26 48,-48 -35,-21 -76,-34 -121,-38 0,-4 0,-9 -1,-15 -1,-6 -1,-10 -1,-12 0,-4 4,-11 13,-19 9,-9 16,-13 22,-12l239 44c31,0 55,0 72,0 17,0 24,0 21,0 2,0 6,0 12,0 5,0 9,0 12,0l375 3 130 7 133 -10c10,-1 26,2 50,10l0 34c-34,18 -56,30 -65,37 -15,11 -33,29 -52,52zm-245 16c-4,-14 -15,-30 -32,-50 -9,-10 -25,-21 -48,-32 -23,-11 -72,-18 -145,-23 -81,-5 -140,5 -178,30 -22,13 -41,32 -58,56 -5,8 -20,39 -45,96 -7,13 -10,23 -11,30 -6,33 -9,72 -9,115 0,40 0,60 0,59 1,14 4,33 9,56 11,47 25,85 43,114 18,29 47,59 87,90 7,6 18,11 33,16 19,6 30,11 33,12 34,16 72,23 115,23 23,0 41,0 52,-2 25,-5 47,-12 67,-20 21,-8 34,-17 41,-27 21,-30 36,-65 42,-105 5,-38 9,-75 13,-112l5 -215c1,-36 -4,-74 -14,-111zm2741 -16l-4 6c-2,3 -4,6 -5,7 -27,67 -41,166 -41,296 0,57 3,99 8,127 9,42 26,81 51,116 6,9 15,16 27,22 13,6 25,12 37,18 15,7 23,17 23,28 0,20 -11,30 -33,28l-245 -15 -301 31c-77,0 -137,-5 -180,-15 -10,-2 -29,-10 -58,-24 -13,-5 -32,-14 -56,-26 -46,-31 -86,-65 -119,-100 -11,-12 -23,-30 -37,-54 -12,-18 -28,-47 -46,-88 -12,-44 -19,-84 -19,-119 0,-17 3,-39 8,-69 5,-29 10,-46 14,-51 2,-1 5,-10 9,-27 4,-20 15,-44 33,-70 10,-12 26,-30 47,-54 11,-10 27,-26 49,-48 -36,-21 -76,-34 -121,-38 0,-4 -1,-9 -2,-15 -1,-6 -1,-10 -1,-12 0,-4 4,-11 13,-19 9,-9 17,-13 23,-12l238 44c31,0 56,0 73,0 17,0 23,0 20,0 3,0 7,0 12,0 6,0 10,0 12,0l375 3 130 7 134 -10c9,-1 26,2 49,10l0 34c-34,18 -55,30 -65,37 -15,11 -32,29 -52,52zm-245 16c-4,-14 -14,-30 -31,-50 -10,-10 -26,-21 -49,-32 -23,-11 -71,-18 -145,-23 -81,-5 -140,5 -177,30 -22,13 -42,32 -59,56 -5,8 -20,39 -44,96 -7,13 -11,23 -12,30 -6,33 -9,72 -9,115 0,40 0,60 0,59 1,14 4,33 9,56 11,47 26,85 43,114 18,29 47,59 87,90 8,6 19,11 33,16 19,6 30,11 33,12 34,16 73,23 115,23 24,0 41,0 52,-2 25,-5 47,-12 68,-20 20,-8 34,-17 41,-27 21,-30 35,-65 42,-105 4,-38 8,-75 12,-112l5 -215c1,-36 -3,-74 -14,-111zm1293 -44c-20,80 -34,157 -43,231 0,2 -1,4 -3,5l-1 1c0,1 0,2 -1,3 -24,11 -39,17 -46,17 -1,0 -9,-4 -22,-11 -4,0 -7,-1 -10,-2 0,-5 3,-19 6,-42 3,-17 4,-31 4,-41 0,-1 0,-1 0,-1l0 0 -2 0c0,0 -1,-1 -3,-2 1,-9 2,-19 2,-31 0,-51 -15,-93 -44,-128 -9,-10 -25,-19 -50,-28 -47,-18 -85,-27 -114,-27 -4,0 -9,0 -15,0 -6,0 -9,0 -9,0 -30,0 -46,1 -51,2 -20,2 -37,6 -51,11 -57,22 -105,60 -145,114 -35,48 -56,96 -62,144 35,5 64,8 86,8l213 0 27 40 -27 31 -312 0c-1,-4 -1,6 -1,28 0,31 9,72 29,123 21,56 54,100 99,130 15,10 39,21 73,32 6,2 22,5 47,9 20,3 43,5 71,5 51,0 87,-7 111,-22 50,-31 83,-80 98,-146 4,-17 8,-36 13,-56l1 -1 3 -2c2,-1 3,-3 3,-5l0 -98c3,3 8,5 15,5 17,-1 33,-1 50,-1 8,21 11,55 10,103 -1,16 1,53 6,110 2,24 9,72 23,144 3,12 4,20 4,21 0,9 -9,18 -27,27l-85 -46 -39 0 -165 30c-60,7 -94,11 -102,10 -161,-21 -289,-84 -384,-190 -4,-8 -10,-18 -19,-31 -40,-59 -60,-121 -60,-186 0,-2 1,-10 3,-27 3,-16 4,-27 4,-33 4,-49 26,-101 65,-155 43,-61 96,-103 158,-129 44,-19 77,-32 99,-39 37,-13 72,-22 103,-26 5,-1 27,-1 65,-1 60,0 109,3 147,9 35,4 84,16 145,35l24 3 40 -26 38 -3c4,2 11,6 19,10 3,24 -1,56 -11,95zm1057 266c-7,0 -14,-3 -21,-7 -40,-23 -70,-52 -89,-87 -11,-20 -21,-41 -32,-61 -11,-21 -25,-40 -41,-57 -32,-32 -58,-53 -78,-62 -51,-26 -97,-43 -137,-50 -41,-8 -79,-12 -114,-12 -31,0 -64,8 -97,25 -37,18 -56,40 -56,65 0,7 4,16 10,26 2,4 10,11 23,21 14,10 22,16 26,18 20,9 45,16 74,21 23,2 60,5 111,9 21,1 54,5 99,12 50,10 98,23 142,38 45,16 87,46 128,89 50,54 75,103 75,148 0,22 -9,53 -26,92 -23,51 -63,92 -119,123 -45,26 -88,43 -130,51 -16,4 -42,5 -79,5l-182 3c6,0 -6,-2 -36,-7 -51,-6 -103,-19 -158,-38 -37,-13 -70,-20 -99,-20 -21,0 -39,8 -54,23 -1,1 -2,4 -4,9 -9,22 -20,33 -34,33 -7,0 -20,-5 -38,-14 -1,-9 -1,-21 1,-36 2,-16 3,-24 3,-24l0 -88c0,-55 -11,-119 -31,-192 -7,-24 -14,-48 -20,-73 -7,-25 -11,-50 -11,-75 0,-3 1,-7 2,-14 1,-7 1,-11 1,-13 11,-8 20,-11 27,-11 15,0 26,6 32,19 16,49 40,119 73,210 11,19 25,48 44,87 0,0 0,1 1,1l3 0c1,0 3,0 3,1 4,6 9,14 17,23 34,27 56,45 66,52 29,22 53,36 70,42 41,16 87,28 139,36 23,3 54,5 92,5 60,0 97,-2 112,-6l9 -4c129,-39 194,-90 194,-153 -15,-24 -25,-38 -29,-42 -15,-13 -31,-22 -49,-28 -18,-6 -35,-12 -52,-18 -24,-10 -106,-20 -246,-29 -27,-6 -68,-15 -121,-26 -90,-14 -156,-44 -198,-90 -41,-45 -65,-85 -70,-120 -5,-17 -4,-40 4,-70 6,-22 27,-48 62,-78 27,-21 59,-38 96,-51 42,-13 85,-23 130,-28 38,-5 74,-6 106,-4 59,4 124,19 194,48 22,8 42,13 61,15 18,2 29,2 33,1 7,-2 16,-9 25,-19l26 -26 15 0c10,3 27,8 51,14l-11 99c0,36 12,85 38,146 3,7 15,21 34,44 3,2 12,9 27,21 11,10 17,18 17,24 0,7 -4,14 -10,22 -6,8 -14,12 -24,12zm1203 410l-555 0 0 -40c5,1 8,1 9,0 1,-1 2,-4 1,-7 24,-4 60,-10 108,-18 44,-8 74,-23 91,-46 3,-4 8,-16 14,-34 7,-18 10,-31 10,-39 0,-24 -3,-47 -9,-67 -3,-4 -7,-10 -11,-19 0,-11 -1,-23 -3,-36l-2 -3c-2,-1 -4,-4 -6,-9 -2,-5 -7,-26 -15,-64 -115,64 -210,118 -283,161 -58,33 -142,86 -252,159 -37,27 -59,42 -65,45 -20,11 -47,17 -79,17 -17,0 -29,-1 -37,-1 -23,-3 -34,-8 -34,-17 0,-8 13,-15 39,-23 26,-8 53,-29 79,-65 21,-28 39,-73 52,-136 9,-49 18,-98 27,-146 20,-98 63,-178 129,-242 8,-8 33,-29 74,-65l-114 -12 -125 0c-18,0 -40,-4 -64,-10 -24,-6 -40,-13 -48,-21 -4,-27 7,-41 32,-41 -10,0 9,2 56,7 106,10 187,15 242,15l347 0 129 -9 105 0c4,19 4,38 0,57 -24,0 -46,1 -65,2 -10,5 -15,21 -15,48 0,13 3,29 9,48 4,17 9,32 14,48 29,123 65,260 107,412 8,14 18,32 31,55 10,19 25,34 44,45 8,2 16,5 26,8 9,3 14,8 14,16 0,6 -2,15 -7,27zm-410 -514c-30,-112 -72,-168 -125,-168 -25,0 -54,23 -86,70 -19,28 -34,54 -44,78 -10,24 -29,76 -56,157 -23,66 -44,118 -64,156 61,-40 189,-124 387,-254 -2,-4 -6,-17 -12,-39z"/>
     <path class="fil8" d="M11449 14321c32,-4 82,-6 149,-7 67,0 124,-3 172,-9 48,-5 94,-16 138,-35 44,-18 82,-46 113,-83 47,-52 70,-118 70,-200 0,-32 -3,-60 -10,-86 -4,-10 -8,-33 -14,-66 -5,-33 -8,-66 -8,-98 0,-27 3,-51 8,-70 -27,12 -50,21 -70,27 -20,6 -41,9 -63,9 -22,0 -47,-4 -77,-11 -31,-7 -67,-10 -106,-10 -121,0 -210,31 -267,92 -16,22 -23,44 -23,66 0,24 8,45 25,64 17,18 41,29 71,33 55,0 98,-16 129,-48 4,-5 8,-12 13,-23 4,-10 8,-18 13,-21 34,36 51,91 51,168 -7,53 -27,91 -61,114 -14,8 -30,11 -50,11 -25,0 -59,-9 -101,-28 -63,-35 -115,-81 -159,-138 -43,-57 -72,-121 -88,-191 -6,-30 -9,-59 -9,-89 0,-59 10,-116 31,-171 22,-55 50,-102 85,-141 9,-7 20,-18 34,-31 14,-14 28,-25 41,-34 13,-9 27,-16 43,-21 16,-5 33,-7 52,-7 39,11 74,24 107,42 32,17 62,36 90,58 28,22 60,50 94,82 35,33 62,60 83,79 0,0 2,-1 7,-5 10,-175 35,-344 73,-504l-559 48c-55,3 -99,9 -134,18 -100,23 -186,64 -259,122 -72,58 -129,129 -168,215 -39,80 -58,167 -58,261 0,106 24,202 74,289 32,62 65,113 101,153 36,40 74,71 114,93 41,22 84,39 129,50 45,11 103,22 174,33zm18 -10c-51,-1 -103,-9 -155,-25 -53,-15 -102,-36 -148,-62 -49,-31 -93,-67 -131,-107 -38,-41 -70,-86 -96,-136 -26,-50 -45,-104 -57,-161 -8,-38 -12,-74 -12,-110 0,-49 6,-99 19,-148 12,-50 30,-97 53,-141 23,-44 51,-84 83,-120 45,-53 99,-95 162,-125 64,-31 131,-52 202,-64 71,-13 144,-21 218,-26 74,-4 154,-9 242,-14l165 -11c-19,74 -34,153 -46,237 -11,84 -17,158 -19,223 -64,-67 -122,-119 -173,-158 -50,-40 -106,-69 -168,-88 -14,-4 -26,-7 -37,-7 -21,0 -43,6 -65,18 -21,11 -41,26 -60,43 -49,42 -89,95 -117,160 -29,64 -44,132 -44,203 0,39 5,76 13,110 15,54 37,104 67,150 31,46 67,85 109,118 42,34 89,61 141,81 11,2 19,3 26,3 35,0 63,-9 84,-26 22,-16 36,-36 42,-61 7,-24 11,-55 13,-93 -16,-92 -52,-154 -108,-187 -11,-7 -23,-10 -38,-10 -21,0 -42,7 -62,20 0,2 -3,6 -7,12 -5,7 -8,12 -11,17 -2,4 -3,8 -3,13 0,7 3,14 11,22 7,6 17,9 28,9 12,0 21,-3 25,-9 0,-5 0,-8 -1,-8 -8,0 -16,2 -22,5 -15,-5 -22,-13 -22,-23 9,-21 21,-34 38,-39 3,-2 9,-3 19,-3 22,0 41,8 57,23 4,6 5,14 5,23 0,18 -5,35 -17,50 -23,23 -54,34 -93,34 -22,0 -40,-3 -56,-10 -31,-19 -47,-42 -47,-70 0,-21 9,-41 26,-61 16,-21 35,-37 57,-48 65,-27 131,-40 198,-40 57,0 107,10 152,29 18,2 30,3 37,3 30,0 60,-9 92,-26 -1,19 -2,31 -2,38 0,21 3,46 8,75 5,29 9,50 10,62 19,48 29,95 29,142 -13,86 -51,155 -113,207 -33,23 -69,40 -107,50 -39,11 -76,18 -111,21 -35,3 -83,5 -144,7 -61,2 -107,5 -139,9zm-14 -47c18,1 47,2 86,2 46,0 93,-3 142,-9 50,-6 99,-15 148,-28 28,-10 53,-21 76,-32 22,-12 43,-27 63,-45 19,-18 33,-41 42,-68 7,-23 10,-49 10,-78 0,-54 -11,-103 -35,-148 -4,-6 -6,-17 -6,-34 0,-20 5,-40 13,-59 -11,8 -23,12 -33,12 -9,0 -26,-5 -51,-15 -25,-8 -49,-16 -72,-23 -23,-7 -48,-12 -74,-16 -26,-4 -52,-6 -80,-6 -5,1 -8,2 -11,3 -2,0 -5,0 -8,0 -3,0 -5,0 -7,1 44,26 84,59 118,98 35,40 55,83 60,132 2,16 3,27 3,34 0,41 -9,81 -27,119 -18,37 -44,69 -77,96 -32,12 -54,20 -64,23 -10,3 -21,5 -33,5 -18,0 -40,-7 -64,-19 -25,-13 -64,-39 -119,-77 -46,-36 -86,-77 -120,-123 -34,-47 -61,-97 -79,-152 -19,-55 -28,-112 -28,-171 0,-17 1,-30 1,-39 7,-88 16,-150 25,-186 10,-35 26,-61 47,-76 22,-15 50,-35 85,-59 35,-24 73,-62 115,-115 10,-16 30,-24 61,-24 13,0 27,2 43,6 15,4 29,9 41,16 26,13 51,29 76,51 25,21 54,46 87,75 33,30 61,52 86,67 4,-20 8,-51 12,-95 5,-43 10,-80 15,-109 5,-30 14,-58 26,-84 -47,4 -87,7 -119,10 -32,2 -70,5 -114,8 -43,3 -78,5 -103,7 -26,1 -64,3 -112,6 -90,3 -175,23 -253,59 -78,36 -146,85 -205,146 -20,27 -36,54 -47,81 -12,27 -28,68 -49,121 -13,49 -19,100 -19,151 0,44 4,85 13,122 29,141 108,255 236,341 35,26 78,47 128,64 50,16 100,28 151,34zm31 -16c-29,0 -58,-2 -88,-7 -29,-6 -57,-13 -83,-21 -26,-9 -53,-21 -82,-34 -4,-4 -10,-10 -18,-17 -9,-8 -15,-15 -20,-23 -5,-7 -8,-14 -8,-21l27 0c19,20 39,37 60,48 21,12 44,20 68,26 24,5 51,9 81,11 5,-3 10,-4 14,-4 3,0 7,1 12,1 5,1 9,2 11,2 6,0 10,-2 14,-4l0 -9c-13,-5 -27,-13 -41,-24 -14,-11 -29,-22 -43,-32 -15,-11 -30,-20 -45,-26 -16,-7 -33,-10 -52,-10 -8,-8 -13,-17 -13,-27 0,-1 1,-4 3,-7 41,0 74,8 100,24 17,13 41,32 73,57 32,24 54,42 67,51 12,10 30,24 53,40l-90 6zm479 -123c-4,7 -19,18 -43,34 -24,15 -51,29 -80,42 -29,13 -54,19 -75,19 -5,0 -11,-1 -17,-3 17,-5 32,-14 42,-27 11,-13 22,-32 33,-57 12,-25 21,-43 28,-57 7,-13 17,-24 29,-33 4,3 8,6 11,8 3,2 5,5 5,9 -1,6 -3,10 -6,12 -3,3 -8,7 -15,14 -1,1 -4,7 -8,17 -5,10 -9,19 -11,26 -2,7 -3,12 -3,16 0,4 1,9 4,15 2,3 5,5 9,5 7,-2 19,-9 34,-20 23,-19 34,-40 34,-61 -6,-10 -18,-25 -35,-45 -18,-20 -29,-35 -36,-47 -1,-10 -2,-19 -2,-27 1,-33 9,-57 22,-72 13,0 22,2 26,8 0,8 -2,19 -8,33 -5,13 -8,24 -10,31 5,13 15,27 29,42 15,14 29,27 43,40 6,10 9,22 9,34 0,11 -3,25 -9,44zm-633 53c0,0 -3,-1 -8,-3 -5,-2 -10,-3 -14,-3 -36,-18 -62,-51 -81,-98 -5,-6 -11,-15 -15,-27 -5,-13 -10,-21 -16,-24 -4,1 -7,4 -10,10 -3,6 -5,10 -6,14 -1,-1 -3,-1 -6,-1 -4,0 -6,-1 -8,-1 -3,-1 -4,-2 -5,-3 -2,-8 -3,-15 -3,-21 0,-22 8,-40 22,-52 22,11 39,29 53,55 14,26 27,51 41,74 13,24 30,40 52,48 5,-1 8,-4 8,-9l0 -9 24 9c1,3 5,9 12,18 7,9 11,17 11,23l-51 0zm-131 -73c-50,-5 -95,-24 -136,-58 -17,-16 -32,-40 -46,-72 -13,-31 -19,-58 -19,-81 20,0 31,2 35,7 2,12 4,22 6,31 2,9 3,17 6,24 2,7 5,15 10,23 16,27 38,48 65,64 28,16 58,26 89,31 1,1 2,4 5,10 2,6 3,10 3,13 0,3 -1,6 -5,8l-13 0zm117 -58l-16 0c-27,-33 -53,-60 -78,-81 -25,-21 -56,-41 -95,-59 1,-3 3,-7 4,-12 2,-6 4,-9 4,-10 14,4 27,9 38,15 12,6 25,15 39,25 15,10 27,19 37,26 22,20 38,37 50,51 12,14 17,29 17,45zm652 -29c0,0 0,0 0,0 -1,0 -1,0 -1,1 -11,-3 -16,-9 -16,-17 8,-9 12,-29 12,-60 -8,-22 -22,-38 -40,-50 -19,-12 -47,-26 -85,-41 -11,-7 -24,-17 -38,-30 -15,-14 -31,-30 -48,-49 -18,-19 -30,-32 -35,-38 7,0 16,-1 29,-1 30,0 59,5 88,15 28,10 54,24 77,43 18,21 26,39 26,53l-32 -12c-3,-2 -8,-8 -16,-16 -7,-8 -13,-13 -17,-16 -7,-5 -13,-9 -20,-14 -7,-4 -13,-8 -20,-11 -6,-3 -12,-4 -17,-4 -5,0 -9,1 -13,3 0,4 2,7 4,11 3,4 4,6 4,8 26,22 65,45 117,67 17,7 31,16 43,28 11,11 19,26 25,44 0,24 -2,42 -5,55 -3,14 -10,24 -22,31zm-836 -26c-9,3 -15,4 -19,4 -4,0 -8,-3 -13,-8 -4,-6 -9,-10 -13,-14 -13,-13 -20,-30 -20,-51 0,-13 4,-33 13,-60 8,-27 12,-47 12,-61 0,-10 0,-17 -2,-21 -2,-3 -5,-4 -9,-4l-36 40c-1,-1 -3,-2 -6,-4 -3,-2 -5,-4 -6,-6 8,-24 18,-44 29,-60 10,-16 23,-28 38,-37 3,2 6,6 9,11 12,22 19,47 19,75 0,33 -7,66 -22,102 -6,16 -9,29 -9,37 0,11 4,19 12,24 3,4 7,6 10,6 7,0 12,-9 16,-28 7,2 11,3 13,4 2,1 4,1 6,2 1,1 2,3 2,4 1,2 1,5 1,10 -9,18 -18,30 -25,35zm43 -306c8,10 16,26 24,48 8,22 12,44 12,66 0,34 -10,64 -30,89l-24 -11c0,-4 1,-9 4,-14 2,-6 4,-10 4,-13 8,-18 13,-36 13,-54 0,-28 -8,-54 -24,-78 -17,-24 -41,-53 -73,-88 2,-5 7,-10 13,-15 37,21 64,44 81,70zm-112 172c-1,5 -3,10 -5,16 -2,7 -4,10 -7,10 -27,-12 -50,-26 -68,-41 -17,-16 -31,-36 -40,-60 -5,-25 -7,-52 -7,-81 0,-80 21,-140 63,-179 3,9 4,18 4,27 0,12 -2,23 -5,34 -3,11 -8,28 -15,49 -8,22 -13,38 -15,47 -2,9 -3,20 -3,32 0,15 3,30 9,44 12,39 41,73 89,102zm24 -172c-14,8 -25,16 -33,23 -8,7 -15,13 -18,17 -4,4 -7,6 -9,6 -2,0 -6,-1 -14,-4 -1,-6 -2,-16 -2,-30 0,-23 5,-46 14,-66 10,-21 24,-45 44,-72 20,-26 33,-45 40,-56 -2,-6 -5,-9 -9,-9 -3,0 -7,2 -13,6 -6,4 -10,6 -13,6 -2,0 -4,-1 -6,-3l1 -28c27,-11 49,-17 64,-17 9,0 15,2 18,5 0,27 -7,51 -21,72 -14,21 -36,48 -67,80 -11,19 -17,33 -17,45 0,4 2,9 4,12l23 -6c7,4 11,7 12,8 2,1 2,5 2,11zm64 -61c-15,-3 -23,-10 -23,-19 24,-20 41,-45 51,-74 10,-30 15,-62 15,-97 0,-18 -1,-39 -5,-63 6,-1 11,-3 15,-5 5,-1 8,-2 10,-2 4,0 7,1 10,4 7,22 11,46 11,70 0,16 -1,33 -4,51 -12,62 -39,107 -80,135zm-95 -77c0,12 -2,17 -7,17 -3,0 -9,-4 -18,-13 -8,-20 -13,-41 -13,-65 0,-23 4,-48 12,-75 12,-29 32,-57 59,-85 27,-27 53,-46 76,-57 -4,12 -9,23 -16,30 -7,8 -19,20 -36,37 -16,16 -28,30 -34,41 -22,37 -33,75 -33,116 0,19 4,37 10,54zm67 -126c-17,-2 -27,-3 -31,-4 -4,-1 -6,-3 -6,-4 0,-2 1,-4 1,-6 1,-3 2,-8 3,-14 9,-16 21,-29 36,-40 15,-11 33,-21 54,-29 20,-7 40,-15 58,-21 18,-7 33,-14 47,-22 2,-3 3,-10 3,-19 -5,-3 -7,-4 -7,-4 -3,2 -8,3 -14,3 15,-11 30,-17 46,-17 8,0 15,2 21,4 3,4 4,5 4,5 -8,18 -21,34 -38,46 -17,13 -39,25 -67,36 -27,11 -47,20 -60,26 -14,6 -26,16 -38,27 2,9 14,13 37,13 0,8 -2,13 -6,16l-43 4zm126 -44l-2 0c0,-1 -1,-4 -4,-9 -2,-5 -3,-9 -3,-12 0,-3 1,-4 4,-6 21,-9 37,-17 45,-22 9,-5 18,-12 27,-21 6,-7 17,-17 35,-33 18,-15 31,-29 40,-39 10,-11 15,-23 18,-34 -5,0 -8,0 -10,0 -1,0 -4,1 -6,1 -2,0 -5,1 -8,1 -3,1 -5,1 -8,2 -40,9 -67,16 -84,21 -16,5 -33,14 -50,25 -18,12 -31,27 -39,46l-23 5c0,-21 8,-39 23,-53 33,-29 73,-48 120,-58 48,-10 102,-14 162,-14 -47,54 -88,98 -123,130 -35,33 -73,56 -114,70zm623 -163c0,-2 1,3 4,15 2,11 5,26 7,43 2,17 3,30 3,41 0,30 -6,47 -19,51 -9,-10 -19,-21 -30,-31 -10,-11 -18,-21 -24,-31 -5,-9 -8,-19 -8,-30l19 2c7,18 13,31 16,37 4,6 10,10 17,14 4,0 6,-3 9,-8 0,-47 -8,-88 -24,-121 1,-3 3,-5 4,-8 1,-2 2,-3 4,-3 8,4 15,14 22,29zm-67 44c-8,-2 -23,-6 -44,-11 -21,-5 -40,-11 -54,-18 -26,-15 -45,-27 -57,-36 -13,-9 -22,-20 -29,-33 45,-7 81,-10 107,-10 27,0 48,3 65,8 0,12 -1,19 -2,19 -25,-3 -59,-4 -102,-4 -3,2 -4,4 -4,9 2,2 9,9 22,20 31,20 76,31 136,33 2,6 2,10 2,13 0,7 -2,10 -7,10l-33 0zm-9 -40l-2 0c0,-8 1,-14 3,-20 2,-6 4,-11 6,-17 3,-5 7,-11 11,-17 5,-7 8,-11 10,-13 20,-12 42,-19 66,-19 10,0 18,2 26,4 2,3 3,5 3,8l-31 62 -8 -16 6 -23c-2,-4 -7,-7 -14,-9 -16,0 -27,5 -33,15 -10,8 -20,24 -29,47 -2,-1 -4,-1 -7,-1 -3,0 -5,0 -7,-1z"/>
    </g>
    <path class="fil8" d="M6182 13663c-9,49 -40,103 -92,162 -52,59 -108,101 -167,125 -59,25 -131,42 -215,51 -37,4 -87,6 -148,6 -1,0 -7,0 -16,0 -11,0 -20,1 -28,2 -29,0 -51,-1 -66,-4 -181,-32 -276,-65 -284,-99l0 -65 44 0c3,0 19,6 49,16 30,11 52,17 66,19 14,2 50,4 107,5 61,2 98,1 110,-2 53,-10 90,-19 110,-26 37,-12 71,-28 102,-50 56,-40 97,-97 122,-171 4,-11 6,-26 6,-44 0,-64 -11,-134 -34,-208 -12,-38 -30,-69 -54,-94 -45,-47 -110,-86 -194,-116 -72,-26 -124,-38 -156,-38 -37,0 -66,1 -86,4 -6,1 -41,11 -104,30 -25,8 -50,26 -74,56 -18,25 -31,49 -38,73 -6,23 -15,57 -26,103 -5,33 -11,83 -18,150l-8 337c-4,159 38,254 126,284 76,0 152,1 228,2 60,2 126,8 198,20 32,3 64,6 96,10 43,6 73,16 90,30 3,30 -11,54 -40,72 -11,7 -24,10 -40,10l-354 -40 -236 0c-66,4 -174,6 -322,4l-215 22c-16,0 -33,-3 -50,-10 -26,-8 -38,-19 -38,-34l0 -6c0,-9 2,-16 8,-20 25,-12 63,-32 114,-60 41,-25 70,-58 87,-100 43,-106 64,-263 64,-469 0,-60 -2,-110 -8,-150 0,-14 -2,-34 -7,-61 -4,-28 -18,-64 -41,-109 -4,-10 -11,-24 -22,-42 -19,-28 -48,-51 -85,-68 -43,-19 -64,-38 -64,-56 0,-32 17,-48 52,-46l383 26 490 -56c92,0 147,1 166,3 19,2 45,5 80,9 41,4 80,11 116,22 68,20 132,56 192,108 7,11 16,25 28,44 68,96 102,210 102,341 0,43 -2,75 -6,98z"/>
   </g>
   <path class="fil11 str1" d="M11442 14318c32,-3 82,-5 149,-6 67,-1 124,-4 172,-9 48,-6 94,-17 138,-36 44,-18 82,-46 113,-83 47,-51 70,-118 70,-200 0,-32 -3,-60 -10,-86 -4,-10 -8,-32 -14,-66 -5,-33 -8,-66 -8,-98 0,-27 3,-50 8,-70 -26,12 -50,21 -70,27 -20,6 -41,9 -63,9 -22,0 -47,-4 -77,-11 -31,-6 -66,-10 -106,-10 -121,0 -210,31 -267,93 -15,21 -23,43 -23,65 0,25 8,46 25,64 17,18 41,29 71,33 56,0 98,-16 129,-48 4,-5 8,-12 13,-23 4,-10 8,-17 13,-21 34,36 51,92 51,168 -7,53 -27,92 -61,114 -14,8 -30,12 -50,12 -25,0 -59,-10 -101,-28 -63,-36 -115,-82 -159,-139 -43,-57 -72,-121 -88,-191 -6,-29 -9,-59 -9,-89 0,-59 10,-115 31,-170 22,-55 50,-102 85,-141 9,-8 20,-19 34,-32 14,-13 28,-25 41,-34 13,-9 27,-16 43,-20 16,-5 33,-8 53,-8 38,11 73,25 106,42 32,17 62,36 90,59 28,21 60,49 95,82 34,32 62,59 82,79 0,0 2,-2 7,-5 10,-176 35,-344 73,-505l-559 48c-55,3 -99,9 -134,18 -100,24 -186,64 -259,122 -72,58 -128,130 -168,215 -39,80 -58,167 -58,261 0,106 24,202 74,289 32,62 65,113 101,153 36,40 74,71 115,93 40,22 83,39 128,50 45,12 103,22 174,33zm18 -10c-51,-1 -103,-9 -155,-24 -53,-16 -102,-37 -148,-63 -49,-31 -93,-67 -131,-107 -38,-40 -70,-86 -96,-136 -26,-50 -45,-103 -57,-161 -8,-37 -12,-74 -12,-110 0,-49 6,-98 19,-148 13,-50 30,-97 53,-141 23,-44 51,-84 83,-119 45,-54 99,-96 162,-126 64,-30 131,-52 202,-64 71,-13 144,-21 218,-25 74,-5 155,-10 242,-15l165 -11c-19,74 -34,154 -46,237 -11,84 -17,158 -19,223 -64,-66 -122,-119 -173,-158 -50,-39 -106,-69 -168,-88 -14,-4 -26,-6 -37,-6 -21,0 -43,5 -65,17 -21,11 -41,26 -60,44 -49,41 -88,94 -117,159 -29,65 -43,132 -43,203 0,39 4,76 12,111 15,54 37,103 67,149 31,46 67,85 109,119 42,33 89,60 141,81 11,1 19,2 26,2 35,0 63,-8 84,-25 22,-17 36,-37 42,-61 7,-25 12,-56 13,-94 -16,-92 -52,-154 -108,-187 -11,-7 -23,-10 -38,-10 -21,0 -42,7 -62,20 0,2 -3,6 -7,13 -5,6 -8,11 -11,16 -2,4 -3,9 -3,13 0,7 3,15 11,22 7,6 17,9 28,9 12,0 21,-3 25,-9 0,-5 0,-7 -1,-7 -8,0 -16,1 -22,4 -15,-5 -22,-13 -22,-23 9,-21 21,-34 38,-39 3,-2 10,-3 19,-3 22,0 41,8 57,23 4,6 5,14 5,23 0,18 -5,35 -17,50 -23,23 -54,34 -93,34 -22,0 -40,-3 -56,-10 -31,-19 -47,-42 -47,-70 0,-20 9,-41 26,-61 16,-21 35,-37 57,-47 66,-27 131,-41 198,-41 57,0 107,10 152,30 18,1 30,2 37,2 30,0 60,-9 92,-26 -1,19 -2,31 -2,38 0,21 3,46 8,75 6,29 9,50 10,62 20,48 29,96 29,142 -13,86 -51,156 -113,207 -33,23 -69,40 -107,51 -39,10 -76,17 -111,20 -35,3 -83,5 -144,7 -61,2 -107,5 -139,9zm-14 -47c18,1 47,2 86,2 46,0 93,-3 142,-9 50,-6 99,-15 148,-28 28,-10 53,-21 76,-32 22,-12 43,-27 63,-45 19,-18 33,-41 42,-68 7,-23 10,-49 10,-78 0,-54 -11,-103 -35,-148 -4,-6 -6,-17 -6,-34 0,-20 5,-40 13,-59 -11,8 -23,12 -33,12 -9,0 -26,-5 -51,-14 -25,-9 -49,-17 -72,-24 -23,-7 -48,-12 -74,-16 -26,-4 -52,-6 -80,-6 -5,1 -8,2 -11,3 -2,0 -5,0 -8,0 -3,0 -5,1 -7,1 44,27 84,59 118,99 35,39 55,83 60,131 2,16 3,27 3,34 0,42 -9,81 -27,119 -18,37 -44,69 -77,96 -32,12 -54,20 -64,23 -10,4 -21,5 -33,5 -18,0 -40,-6 -64,-19 -25,-13 -64,-39 -119,-77 -46,-36 -86,-77 -120,-123 -34,-46 -61,-97 -79,-152 -18,-55 -28,-112 -28,-171 0,-17 1,-30 1,-39 7,-88 16,-150 25,-186 10,-35 26,-61 47,-76 22,-15 50,-34 85,-58 35,-25 73,-63 115,-116 10,-16 30,-24 61,-24 13,0 27,2 43,6 15,4 29,9 41,17 26,12 51,29 76,50 25,21 54,46 87,76 33,29 61,51 86,66 4,-20 8,-51 12,-95 5,-43 10,-79 15,-109 5,-30 14,-57 26,-84 -47,4 -87,8 -119,10 -32,2 -70,5 -114,8 -43,3 -78,5 -103,7 -26,1 -64,3 -112,6 -90,4 -175,23 -253,59 -78,36 -146,85 -205,146 -20,27 -36,54 -47,81 -12,27 -28,68 -49,121 -13,50 -19,100 -19,151 0,44 4,85 13,123 29,140 108,254 236,341 35,25 78,46 128,63 50,16 100,28 151,34zm31 -15c-29,0 -58,-3 -88,-8 -29,-5 -57,-12 -83,-21 -26,-9 -53,-20 -82,-34 -4,-4 -10,-10 -18,-17 -9,-8 -15,-15 -20,-22 -5,-7 -8,-15 -8,-22l27 0c19,21 39,37 60,48 21,12 44,21 68,26 24,5 51,9 81,11 5,-2 10,-4 14,-4 3,0 7,1 12,2 5,0 9,1 11,1 6,0 10,-1 14,-4l0 -9c-13,-5 -27,-13 -41,-24 -14,-11 -29,-22 -43,-32 -15,-11 -30,-20 -45,-26 -16,-6 -33,-10 -52,-10 -8,-8 -13,-17 -13,-26 0,-2 1,-5 3,-8 41,0 74,8 100,24 17,13 41,32 73,57 32,24 54,42 67,52 13,9 30,23 53,39l-90 7zm479 -124c-4,7 -18,18 -43,34 -24,15 -51,29 -80,42 -29,13 -54,19 -75,19 -5,0 -11,-1 -17,-2 17,-6 32,-14 42,-28 11,-13 22,-31 33,-57 12,-24 21,-43 28,-56 7,-13 17,-25 29,-34 4,4 8,6 11,8 3,2 5,6 6,10 -2,5 -4,9 -7,12 -3,2 -8,7 -15,13 -1,1 -4,7 -8,17 -5,11 -9,19 -11,26 -2,7 -3,12 -3,16 0,4 1,10 4,15 2,4 5,5 9,5 7,-2 19,-9 34,-20 23,-19 34,-40 34,-61 -6,-10 -18,-24 -35,-44 -18,-20 -29,-36 -36,-48 -1,-10 -2,-19 -2,-27 2,-33 9,-57 22,-72 13,0 22,3 26,8 0,8 -2,19 -8,33 -5,13 -8,24 -10,31 5,13 15,27 29,42 15,14 29,28 43,40 6,10 9,22 9,34 0,11 -3,26 -9,44zm-633 53c0,0 -3,-1 -8,-3 -5,-2 -10,-3 -14,-3 -36,-18 -62,-51 -81,-98 -5,-6 -11,-15 -15,-27 -5,-12 -10,-21 -16,-24 -4,1 -7,4 -10,10 -3,6 -5,10 -6,14 -1,0 -3,-1 -6,-1 -3,0 -6,0 -8,-1 -3,-1 -4,-2 -5,-3 -2,-8 -3,-15 -3,-20 0,-23 8,-41 22,-53 22,11 39,29 53,55 14,26 27,51 41,75 13,23 30,39 52,48 6,-2 8,-5 8,-10l0 -8 24 8c1,3 5,9 12,18 7,9 11,17 11,23l-51 0zm-131 -73c-50,-4 -95,-24 -136,-58 -17,-16 -32,-40 -46,-72 -13,-31 -19,-58 -19,-81 20,0 31,2 35,7 2,12 4,22 6,31 2,9 3,17 6,24 2,7 5,15 10,23 16,27 38,48 65,64 28,16 58,26 89,31 1,1 2,4 5,10 2,6 3,10 3,13 0,3 -1,6 -5,8l-13 0zm117 -58l-16 0c-27,-33 -53,-60 -78,-81 -24,-21 -56,-41 -95,-59 1,-2 3,-7 4,-12 2,-6 4,-9 4,-10 14,4 27,10 38,15 12,6 25,15 39,25 15,11 27,19 37,26 22,20 38,37 50,51 12,14 17,29 17,45zm652 -29c0,0 0,0 0,0 -1,0 -1,1 -1,1 -11,-3 -16,-9 -16,-17 8,-9 12,-29 12,-59 -8,-23 -22,-39 -40,-51 -19,-12 -47,-26 -85,-41 -11,-7 -23,-17 -38,-30 -15,-14 -31,-30 -48,-49 -18,-19 -30,-31 -35,-37 7,-1 16,-1 29,-1 30,0 59,4 88,14 28,10 54,24 77,43 18,21 26,39 26,53l-32 -12c-3,-2 -8,-7 -16,-15 -7,-8 -13,-14 -17,-17 -7,-4 -13,-9 -20,-13 -6,-5 -13,-8 -20,-12 -6,-3 -12,-4 -17,-4 -5,0 -9,1 -13,4 0,3 2,6 4,10 3,4 4,7 4,8 26,23 65,45 117,67 17,7 32,16 43,28 11,11 19,26 25,45 0,23 -2,41 -5,55 -3,13 -10,23 -22,30zm-836 -26c-9,3 -15,4 -19,4 -4,0 -8,-3 -13,-8 -4,-6 -9,-10 -13,-14 -13,-13 -20,-30 -20,-51 0,-13 4,-33 13,-60 8,-27 12,-47 12,-60 0,-11 0,-18 -2,-22 -2,-3 -5,-4 -9,-4l-36 40c-1,0 -3,-2 -6,-4 -3,-2 -5,-3 -6,-6 8,-24 18,-44 29,-60 10,-16 23,-28 38,-37 3,2 6,6 9,11 12,22 19,47 19,75 0,33 -7,66 -22,102 -6,16 -9,29 -9,37 0,11 4,19 12,24 3,5 7,6 10,6 7,0 12,-9 16,-28 7,2 11,3 13,4 2,1 4,1 6,2 1,1 2,3 3,4 0,2 0,5 0,10 -9,18 -17,30 -25,35zm43 -306c8,10 16,26 24,48 8,22 12,44 12,66 0,34 -10,64 -30,89l-24 -11c0,-4 1,-9 4,-14 2,-5 4,-10 4,-13 9,-18 13,-36 13,-54 0,-28 -8,-54 -24,-78 -17,-23 -41,-53 -73,-88 2,-5 7,-10 13,-14 37,20 64,43 81,69zm-112 172c-1,5 -3,10 -5,16 -2,7 -4,10 -7,10 -27,-12 -50,-26 -68,-41 -17,-16 -31,-36 -40,-60 -5,-25 -7,-52 -7,-81 0,-80 21,-139 63,-179 3,9 4,18 4,27 0,12 -2,23 -5,34 -2,11 -8,28 -15,49 -8,22 -13,38 -15,47 -2,10 -3,20 -3,32 0,15 3,30 9,44 12,39 41,73 89,102zm24 -172c-14,8 -25,16 -33,23 -8,7 -15,13 -18,17 -4,4 -7,6 -9,6 -2,0 -6,-1 -14,-4 -1,-6 -2,-16 -2,-30 0,-23 5,-45 14,-66 10,-21 24,-45 44,-72 20,-26 33,-45 40,-56 -2,-6 -5,-9 -9,-9 -3,0 -7,2 -13,6 -6,4 -10,6 -12,6 -3,0 -5,-1 -7,-3l1 -28c27,-11 49,-16 64,-16 9,0 15,1 18,5 0,27 -7,51 -21,71 -14,21 -36,48 -67,81 -11,18 -17,32 -17,44 0,5 2,9 4,13l23 -7c7,4 11,7 12,8 2,2 2,5 2,11zm64 -61c-15,-3 -23,-10 -23,-19 24,-20 41,-45 51,-74 10,-30 16,-62 16,-97 0,-18 -2,-39 -6,-63 6,-1 11,-3 16,-4 4,-2 7,-3 9,-3 4,0 7,1 10,4 7,23 11,46 11,70 0,16 -1,33 -4,51 -12,62 -39,107 -80,135zm-95 -76c0,11 -2,16 -7,16 -3,0 -9,-4 -18,-13 -8,-20 -13,-41 -13,-64 0,-24 4,-49 12,-76 12,-29 32,-57 59,-85 27,-27 53,-46 76,-57 -4,13 -9,23 -16,30 -7,8 -19,20 -36,37 -16,17 -28,30 -34,41 -22,37 -33,75 -33,116 0,19 4,37 10,55zm67 -127c-17,-2 -27,-3 -31,-4 -4,-1 -6,-2 -6,-4 0,-2 1,-4 1,-6 1,-3 2,-8 3,-14 9,-15 21,-29 36,-40 15,-11 33,-21 54,-28 20,-8 40,-15 58,-22 18,-7 33,-14 47,-22 2,-3 3,-9 3,-19 -4,-2 -7,-4 -7,-4 -3,2 -8,3 -14,3 15,-11 30,-16 46,-16 8,0 15,1 21,3 3,4 4,5 4,5 -8,19 -21,34 -38,46 -17,13 -39,25 -67,36 -27,11 -47,20 -60,26 -14,7 -26,16 -38,27 2,9 15,13 37,13 0,8 -2,13 -6,17l-43 3zm126 -44l-2 0c0,-1 -1,-4 -4,-9 -2,-5 -3,-8 -3,-11 0,-3 1,-5 4,-7 21,-9 37,-17 45,-22 9,-5 18,-12 27,-21 6,-6 17,-17 35,-33 18,-15 31,-28 40,-39 10,-11 16,-22 18,-34 -5,0 -8,0 -10,0 -1,1 -4,1 -6,1 -2,1 -5,1 -8,1 -2,1 -5,1 -8,2 -40,9 -67,17 -83,22 -17,4 -34,13 -51,24 -18,12 -31,27 -38,46l-24 5c0,-21 8,-39 24,-52 32,-30 72,-49 120,-59 47,-9 101,-14 161,-14 -47,54 -88,98 -123,131 -35,32 -73,55 -114,69zm623 -163c0,-2 1,3 4,15 2,12 5,26 7,43 2,17 4,31 4,41 0,30 -7,47 -20,51 -9,-10 -19,-20 -30,-31 -10,-11 -18,-21 -24,-31 -5,-9 -8,-19 -8,-30l19 2c7,18 13,31 16,37 4,6 10,11 17,14 4,0 6,-3 9,-8 0,-47 -8,-88 -24,-121 1,-3 3,-5 4,-7 1,-3 2,-4 4,-4 8,4 15,14 22,29zm-67 44c-8,-2 -23,-5 -44,-11 -21,-5 -40,-11 -54,-18 -26,-15 -45,-26 -57,-36 -13,-9 -22,-19 -29,-32 45,-7 81,-11 107,-11 27,0 48,3 65,8 0,13 -1,19 -2,19 -25,-3 -59,-4 -102,-4 -3,2 -4,5 -4,9 2,3 9,10 22,20 31,21 76,32 136,33 2,6 2,11 2,13 0,7 -2,10 -7,10l-33 0zm-9 -40l-2 0c0,-8 1,-14 3,-20 2,-6 4,-11 6,-17 3,-5 7,-11 11,-17 5,-6 8,-11 10,-13 20,-12 42,-18 66,-18 10,0 18,1 26,3 2,3 3,5 3,8l-31 62 -8 -16 7 -23c-3,-4 -8,-7 -15,-9 -16,0 -27,5 -33,15 -10,8 -20,24 -29,47 -2,-1 -4,-1 -7,-1 -2,0 -5,0 -7,-1z"/>
   <g style="clip-path:url(#id2)">
    <image id="besp.gif_0" transform="matrix(0.124669 -0.0565221 0.0565221 0.124669 10658.2 13774.8)" x="0" y="0" width="11430" height="7620" xlink:href="LogoPan_Images\LogoPan_ImgID3.png"/>
   </g>
   <g style="clip-path:url(#id3)">
    <image id="pt.png_1" transform="matrix(0.254207 -0.111832 0.111832 0.254207 7810.43 10954.1)" x="0" y="0" width="20461" height="13653" xlink:href="LogoPan_Images\LogoPan_ImgID4.png"/>
   </g>
  </g>
 </g>
</svg>
